Music_AreaZero:
	channel_count 4
	channel 1, Music_AreaZero_Ch1
	channel 2, Music_AreaZero_Ch2
	channel 3, Music_AreaZero_Ch3
	channel 4, Music_AreaZero_Ch4

Music_AreaZero_Ch1:
	tempo 256
	volume 7, 7
	note_type 12, 15, 8
.mainLoop:
	tempo 161
	volume_envelope 10, 8
	note_type 12, 10, 8
	duty_cycle 3
	volume_envelope 2, 8
	octave 4
	note F_, 2
	note F#, 2
	note C#, 2
	volume_envelope 4, 8
	note D#, 2
	octave 3
	note G#, 2
	octave 4
	note C#, 2
	volume_envelope 6, 8
	note D#, 2
	note G#, 2
	note F_, 2
	volume_envelope 8, 8
	note F#, 2
	note C#, 2
	note D#, 2
	octave 3
	volume_envelope 10, 8
	note G#, 2
	octave 4
	note C#, 2
	note D#, 2
	note G#, 2
	note F_, 2
	note F#, 2
	note C#, 2
	note D#, 2
	octave 3
	note G#, 2
	octave 4
	note C#, 2
	note D#, 2
	note G#, 2
	note F_, 2
	note F#, 2
	note C#, 2
	note D#, 2
	octave 3
	note G#, 2
	octave 4
	note C#, 2
	note D#, 2
	note G#, 2
	note F_, 2
	note F#, 2
	note C#, 2
	note D#, 2
	octave 3
	note G#, 2
	octave 4
	note C#, 2
	note D#, 2
	note G#, 2
	note F_, 2
	note F#, 2
	note C#, 2
	note D#, 2
	octave 3
	note G#, 2
	octave 4
	note C#, 2
	note D#, 2
	note G#, 2
	volume_envelope 9, 8
	note F_, 2
	note F#, 2
	note C#, 2
	note D#, 2
	octave 3
	note G#, 2
	octave 4
	note C#, 2
	note D#, 2
	note G#, 2
	note F_, 2
	note F#, 2
	note C#, 2
	note D#, 2
	octave 3
	note G#, 2
	octave 4
	note C#, 2
	note D#, 2
	note G#, 2
	vibrato 0, 0, 0
	note F_, 2
	note F#, 2
	note C#, 2
	note D#, 2
	octave 3
	note G#, 2
	octave 4
	note C#, 2
	note D#, 2
	note G#, 2
	volume_envelope 4, 8
	note F_, 2
	note F#, 2
	note C#, 2
	note D#, 2
	octave 3
	note G#, 2
	octave 4
	note C#, 2
	note D#, 2
	note G#, 2
	note F_, 2
	note F#, 2
	note C#, 2
	note D#, 2
	octave 3
	note G#, 2
	octave 4
	note C#, 2
	note D#, 2
	note G#, 2
	note F_, 2
	note F#, 2
	note C#, 2
	note D#, 2
	octave 3
	note G#, 2
	octave 4
	note C#, 2
	note D#, 2
	note G#, 2
	note F_, 2
	note F#, 2
	note C#, 2
	note D#, 2
	octave 3
	note G#, 2
	octave 4
	note C#, 2
	note D#, 2
	note G#, 2
	note F_, 2
	note F#, 2
	note C#, 2
	note D#, 2
	octave 3
	note G#, 2
	octave 4
	note C#, 2
	note D#, 2
	note G#, 2
	note F_, 2
	note F#, 2
	volume_envelope 5, 8
	note C#, 2
	note D#, 2
	octave 3
	note G#, 2
	octave 4
	note C#, 2
	note D#, 2
	note G#, 2
	volume_envelope 6, 8
	note F_, 2
	note F#, 2
	note C#, 2
	note D#, 2
	octave 3
	note G#, 2
	octave 4
	note C#, 2
	note D#, 2
	note G#, 2
	note F_, 2
	note F#, 2
	note C#, 2
	note D#, 2
	octave 3
	note G#, 2
	octave 4
	note C#, 2
	note D#, 2
	note G#, 2
	note F_, 2
	note F#, 2
	note C#, 2
	note D#, 2
	octave 3
	note G#, 2
	octave 4
	note C#, 2
	note D#, 2
	note G#, 2
	note F_, 2
	note F#, 2
	note C#, 2
	note D#, 2
	octave 3
	note G#, 2
	octave 4
	note C#, 2
	note D#, 2
	note G#, 2
	note F_, 2
	note F#, 2
	note C#, 2
	note D#, 2
	octave 3
	note G#, 2
	octave 4
	note C#, 2
	note D#, 2
	note G#, 2
	note F_, 2
	note F#, 2
	note C#, 2
	note D#, 2
	octave 3
	note G#, 2
	octave 4
	note C#, 2
	note D#, 2
	note G#, 2
	note F_, 2
	note F#, 2
	note C#, 2
	note D#, 2
	octave 3
	volume_envelope 7, 8
	note G#, 2
	octave 4
	note C#, 2
	note D#, 2
	note G#, 2
	volume_envelope 8, 8
	note F_, 2
	note F#, 2
	note C#, 2
	note D#, 2
	octave 3
	volume_envelope 9, 8
	note G#, 2
	octave 4
	note C#, 2
	note D#, 2
	note G#, 2
	duty_cycle 1
	octave 3
	note F_, 1
	note_type 6, 9, 8
	volume_envelope 5, 8
	note F_, 1
	rest 1
	note_type 12, 9, 8
	note F#, 1
	note_type 6, 9, 8
	volume_envelope 5, 8
	note F#, 1
	rest 1
	note_type 12, 9, 8
	note C#, 1
	note_type 6, 9, 8
	volume_envelope 5, 8
	note C#, 1
	rest 1
	note_type 12, 9, 8
	note D#, 1
	note_type 6, 9, 8
	volume_envelope 5, 8
	note D#, 1
	octave 2
	rest 1
	note_type 12, 9, 8
	note G#, 1
	note_type 6, 9, 8
	volume_envelope 5, 8
	note G#, 1
	rest 1
	note_type 12, 9, 8
	octave 3
	note C#, 1
	note_type 6, 9, 8
	volume_envelope 5, 8
	note C#, 1
	rest 1
	note_type 12, 9, 8
	note D#, 1
	note_type 6, 9, 8
	volume_envelope 5, 8
	note D#, 1
	rest 1
	note_type 12, 9, 8
	note C#, 1
	note G#, 1
	note D#, 1
	note D#, 1
	volume_envelope 3, 8
	note C#, 1
	note G#, 1
	note D#, 1
	note_type 6, 3, 8
	volume_envelope 5, 8
	note D#, 1
	rest 1
	note_type 12, 3, 8
	volume_envelope 6, 8
	note C#, 1
	note G#, 1
	note D#, 1
	note D#, 1
	volume_envelope 3, 8
	note C#, 1
	note G#, 1
	note D#, 1
	note_type 6, 3, 8
	volume_envelope 5, 8
	note D#, 1
	rest 1
	note_type 12, 3, 8
	volume_envelope 6, 8
	note C#, 1
	note G#, 1
	note F_, 1
	note_type 6, 6, 8
	volume_envelope 5, 8
	note F_, 1
	rest 1
	note_type 12, 6, 8
	note F#, 1
	note_type 6, 6, 8
	volume_envelope 5, 8
	note F#, 1
	rest 1
	note_type 12, 6, 8
	note C#, 1
	note_type 6, 6, 8
	volume_envelope 5, 8
	note C#, 1
	rest 1
	note_type 12, 6, 8
	note D#, 1
	note_type 6, 6, 8
	volume_envelope 5, 8
	note D#, 1
	octave 2
	rest 1
	note_type 12, 6, 8
	note G#, 1
	note_type 6, 6, 8
	volume_envelope 5, 8
	note G#, 1
	rest 1
	note_type 12, 6, 8
	octave 3
	note C#, 1
	note_type 6, 6, 8
	volume_envelope 5, 8
	note C#, 1
	rest 1
	note_type 12, 6, 8
	note D#, 1
	note_type 6, 6, 8
	volume_envelope 5, 8
	note D#, 1
	rest 1
	note_type 12, 6, 8
	note C#, 1
	note G#, 1
	note D#, 1
	note D#, 1
	volume_envelope 3, 8
	note C#, 1
	note G#, 1
	note D#, 1
	note_type 6, 3, 8
	volume_envelope 5, 8
	note D#, 1
	rest 1
	note_type 12, 3, 8
	volume_envelope 6, 8
	note C#, 1
	note G#, 1
	note D#, 1
	note D#, 1
	volume_envelope 3, 8
	note C#, 1
	note G#, 1
	note D#, 1
	note_type 6, 3, 8
	volume_envelope 5, 8
	note D#, 1
	rest 1
	note_type 12, 3, 8
	volume_envelope 6, 8
	note C#, 1
	note G#, 1
	note_type 12, 15, 8
	volume_envelope 9, 8
	note F_, 1
	note_type 6, 9, 8
	volume_envelope 5, 8
	note F_, 1
	rest 1
	note_type 12, 9, 8
	note F#, 1
	note_type 6, 9, 8
	volume_envelope 5, 8
	note F#, 1
	rest 1
	note_type 12, 9, 8
	note C#, 1
	note_type 6, 9, 8
	volume_envelope 5, 8
	note C#, 1
	rest 1
	note_type 12, 9, 8
	note D#, 1
	note_type 6, 9, 8
	volume_envelope 5, 8
	note D#, 1
	octave 2
	rest 1
	note_type 12, 9, 8
	note A#, 1
	note_type 6, 9, 8
	volume_envelope 5, 8
	note A#, 1
	rest 1
	note_type 12, 9, 8
	octave 3
	note C#, 1
	note_type 6, 9, 8
	volume_envelope 5, 8
	note C#, 1
	rest 1
	note_type 12, 9, 8
	note D#, 1
	note_type 6, 9, 8
	volume_envelope 5, 8
	note D#, 1
	rest 1
	note_type 12, 9, 8
	note C#, 1
	note G#, 1
	note D#, 1
	note_type 6, 9, 8
	volume_envelope 5, 8
	note D#, 1
	rest 1
	note_type 12, 9, 8
	note C#, 1
	note G#, 1
	note D#, 1
	note_type 6, 9, 8
	volume_envelope 5, 8
	note D#, 1
	rest 1
	note_type 12, 9, 8
	note C#, 1
	note G#, 1
	note D#, 1
	note_type 6, 9, 8
	volume_envelope 5, 8
	note D#, 1
	rest 1
	note_type 12, 9, 8
	note C#, 1
	note G#, 1
	note D#, 1
	note_type 6, 9, 8
	volume_envelope 5, 8
	note D#, 1
	rest 1
	note_type 12, 9, 8
	note C#, 1
	note G#, 1
	note F_, 1
	note_type 6, 9, 8
	volume_envelope 5, 8
	note F_, 1
	rest 1
	note_type 12, 9, 8
	note F#, 1
	note_type 6, 9, 8
	volume_envelope 5, 8
	note F#, 1
	rest 1
	note_type 12, 9, 8
	note C#, 1
	note_type 6, 9, 8
	volume_envelope 5, 8
	note C#, 1
	rest 1
	note_type 12, 9, 8
	note D#, 1
	note_type 6, 9, 8
	volume_envelope 5, 8
	note D#, 1
	octave 2
	rest 1
	note_type 12, 9, 8
	note G#, 1
	note_type 6, 9, 8
	volume_envelope 5, 8
	note G#, 1
	rest 1
	note_type 12, 9, 8
	octave 3
	note C#, 1
	note_type 6, 9, 8
	volume_envelope 5, 8
	note C#, 1
	rest 1
	note_type 12, 9, 8
	note D#, 1
	note_type 6, 9, 8
	volume_envelope 5, 8
	note D#, 1
	rest 1
	note_type 12, 9, 8
	note C#, 1
	note G#, 1
	note D#, 1
	note_type 6, 9, 8
	volume_envelope 5, 8
	note D#, 1
	rest 1
	note_type 12, 9, 8
	note C#, 1
	note G#, 1
	note D#, 1
	note_type 6, 9, 8
	volume_envelope 5, 8
	note D#, 1
	rest 1
	note_type 12, 9, 8
	note C#, 1
	note G#, 1
	note D#, 1
	note_type 6, 9, 8
	volume_envelope 5, 8
	note D#, 1
	rest 1
	note_type 12, 9, 8
	note C#, 1
	note G#, 1
	note D#, 1
	note_type 6, 9, 8
	volume_envelope 5, 8
	note D#, 1
	rest 1
	note_type 12, 9, 8
	note C#, 1
	note G#, 1
	octave 2
	note G#, 1
	octave 3
	note F_, 1
	octave 2
	note A#, 1
	octave 3
	note F#, 1
	octave 2
	note F_, 1
	octave 3
	note C#, 1
	octave 2
	note F#, 1
	octave 3
	note D#, 1
	octave 2
	note D#, 1
	note G#, 1
	note A#, 1
	octave 3
	note C#, 1
	octave 2
	note G#, 1
	octave 3
	note D#, 1
	note C#, 1
	note G#, 1
	volume_envelope 5, 8
	octave 2
	note G#, 1
	octave 3
	note D#, 1
	note C#, 1
	note G#, 1
	volume_envelope 9, 8
	octave 2
	note A#, 1
	octave 3
	note D#, 1
	note C#, 1
	note G#, 1
	volume_envelope 5, 8
	octave 2
	note G#, 1
	octave 3
	note D#, 1
	note C#, 1
	note G#, 1
	volume_envelope 9, 8
	octave 2
	note A#, 1
	octave 3
	note D#, 1
	note C#, 1
	note G#, 1
	octave 2
	note G#, 1
	octave 3
	note F_, 1
	octave 2
	note A#, 1
	octave 3
	note F#, 1
	octave 2
	note F_, 1
	octave 3
	note C#, 1
	octave 2
	note F#, 1
	octave 3
	note D#, 1
	octave 2
	note D#, 1
	note G#, 1
	note A#, 1
	octave 3
	note C#, 1
	octave 2
	note G#, 1
	octave 3
	note D#, 1
	note C#, 1
	note G#, 1
	volume_envelope 5, 8
	octave 2
	note G#, 1
	octave 3
	note D#, 1
	note C#, 1
	note G#, 1
	volume_envelope 9, 8
	octave 2
	note A#, 1
	octave 3
	note D#, 1
	note C#, 1
	note G#, 1
	volume_envelope 5, 8
	octave 2
	note G#, 1
	octave 3
	note D#, 1
	note C#, 1
	note G#, 1
	volume_envelope 9, 8
	octave 2
	note A#, 1
	octave 3
	note D#, 1
	note C#, 1
	note G#, 1
	octave 2
	note G#, 1
	octave 3
	note F_, 1
	octave 2
	note A#, 1
	octave 3
	note F#, 1
	octave 2
	note F_, 1
	octave 3
	note C#, 1
	octave 2
	note F#, 1
	octave 3
	note D#, 1
	octave 2
	note D#, 1
	note G#, 1
	note A#, 1
	octave 3
	note C#, 1
	octave 2
	note G#, 1
	octave 3
	note D#, 1
	note C#, 1
	note G#, 1
	volume_envelope 5, 8
	octave 2
	note G#, 1
	octave 3
	note D#, 1
	note C#, 1
	note G#, 1
	volume_envelope 9, 8
	octave 2
	note A#, 1
	octave 3
	note D#, 1
	note C#, 1
	note G#, 1
	volume_envelope 5, 8
	octave 2
	note G#, 1
	octave 3
	note D#, 1
	note C#, 1
	note G#, 1
	volume_envelope 9, 8
	octave 2
	note A#, 1
	octave 3
	note D#, 1
	note C#, 1
	note G#, 1
	volume_envelope 5, 8
	octave 2
	note G#, 1
	octave 3
	note F_, 1
	octave 2
	note A#, 1
	octave 3
	note F#, 1
	volume_envelope 9, 8
	octave 2
	note F_, 1
	octave 3
	note C#, 1
	octave 2
	note F#, 1
	octave 3
	note D#, 1
	octave 2
	note D#, 1
	note G#, 1
	note A#, 1
	octave 3
	note C#, 1
	octave 2
	note G#, 1
	octave 3
	note D#, 1
	note C#, 1
	note G#, 1
	volume_envelope 5, 8
	octave 2
	note G#, 1
	octave 3
	note D#, 1
	note C#, 1
	note G#, 1
	volume_envelope 9, 8
	octave 2
	note A#, 1
	octave 3
	note D#, 1
	note C#, 1
	note G#, 1
	volume_envelope 5, 8
	octave 2
	note G#, 1
	octave 3
	note D#, 1
	note C#, 1
	note G#, 1
	volume_envelope 9, 8
	octave 2
	note A#, 1
	octave 3
	note D#, 1
	note C#, 1
	note G#, 1
	volume_envelope 10, 8
	duty_cycle 3
	note F_, 2
	note F#, 2
	note C#, 2
	note D#, 2
	octave 2
	note G#, 2
	octave 3
	note C#, 2
	note D#, 2
	note G#, 1
	note F#, 1
	note D#, 2
	note G#, 1
	note F#, 1
	note D#, 2
	note G#, 1
	note F#, 1
	note D#, 2
	note G#, 1
	note F#, 1
	note D#, 2
	note G#, 1
	note F#, 1
	note F_, 2
	note F#, 2
	note C#, 2
	note D#, 2
	octave 2
	note G#, 2
	octave 3
	note C#, 2
	note D#, 2
	note G#, 1
	note F#, 1
	note D#, 2
	note G#, 1
	note F#, 1
	note D#, 2
	note G#, 1
	note F#, 1
	note D#, 2
	note G#, 1
	note F#, 1
	note D#, 2
	note G#, 1
	note F#, 1
	note F_, 2
	note F#, 2
	note C#, 2
	note D#, 2
	octave 2
	note G#, 2
	octave 3
	note C#, 2
	note D#, 2
	note G#, 1
	note F#, 1
	note D#, 2
	note G#, 1
	note F#, 1
	note D#, 2
	note G#, 1
	note F#, 1
	note D#, 2
	note G#, 1
	note F#, 1
	note D#, 2
	note G#, 1
	note F#, 1
	note F_, 2
	note F#, 2
	note_type 8, 7, 8
	note F#, 2
	note F#, 2
	note F#, 2
	note F#, 2
	note F#, 2
	volume_envelope 8, 8
	note F#, 2
	note_type 12, 7, 8
	volume_envelope 14, 8
	note F#, 2
	note D#, 2
	note G#, 1
	note F#, 1
	note D#, 2
	note D#, 2
	note G#, 1
	note F#, 1
	note D#, 2
	note G#, 1
	note F#, 1
	note D#, 2
	note G#, 1
	note F#, 1
	note D#, 2
	rest 2
	octave 2
	volume_envelope 10, 8
	note F_, 2
	note F#, 2
	octave 3
	note C#, 2
	note C#, 1
	note D#, 2
	octave 2
	rest 1
	note F#, 2
	rest 4
	note F_, 2
	note F#, 2
	octave 3
	note D#, 2
	note C#, 1
	note F_, 2
	rest 7
	octave 2
	note F_, 2
	note F#, 2
	octave 3
	note F_, 2
	rest 1
	note F#, 2
	rest 1
	note F_, 2
	note F_, 2
	note F_, 2
	note F_, 2
	note F_, 2
	note D#, 2
	note D#, 2
	octave 2
	note B_, 2
	note B_, 2
	volume_envelope 5, 8
	note B_, 2
	volume_envelope 2, 8
	note B_, 2
	volume_envelope 10, 8
	note F_, 2
	note F#, 2
	octave 3
	note C#, 3
	note D#, 2
	rest 1
	octave 2
	note F#, 2
	duty_cycle 1
	vibrato 0, 1, 3
	volume_envelope 5, 7
	note F#, 2
	rest 2
	vibrato 0, 0, 0
	duty_cycle 3
	volume_envelope 10, 8
	note F_, 2
	note F#, 2
	octave 3
	note D#, 2
	note C#, 1
	note F_, 2
	rest 7
	octave 2
	note F_, 2
	note F#, 2
	octave 3
	note F_, 3
	note F#, 2
	rest 1
	note A#, 2
	note A#, 2
	note A#, 2
	note A#, 2
	note A#, 2
	note G#, 2
	note G#, 2
	note F#, 2
	note F#, 2
	note F_, 2
	note F#, 2
	octave 2
	note F_, 2
	note F#, 2
	octave 3
	note C#, 1
	note C#, 2
	note D#, 2
	note D#, 1
	octave 2
	note F#, 2
	octave 3
	note F_, 2
	note F#, 2
	octave 2
	note F_, 2
	note F#, 2
	octave 3
	note D#, 2
	note C#, 1
	note F_, 2
	note D#, 1
	note G#, 2
	note F_, 2
	note F#, 2
	octave 2
	note F_, 2
	note F#, 2
	octave 3
	note F_, 2
	note C#, 1
	note F#, 2
	note G#, 1
	note F_, 2
	note F_, 2
	note F_, 2
	note C#, 2
	note D#, 2
	note D#, 2
	note C#, 2
	octave 2
	note B_, 2
	octave 3
	note G#, 2
	note F_, 2
	volume_envelope 5, 8
	note F#, 2
	octave 2
	volume_envelope 10, 8
	note F_, 2
	note F#, 2
	octave 3
	note C#, 1
	note C#, 2
	note D#, 2
	note D#, 1
	octave 2
	note F#, 2
	octave 3
	note F_, 2
	note F#, 2
	octave 2
	note F_, 2
	note F#, 2
	octave 3
	note D#, 2
	note C#, 1
	note F_, 1
	note F_, 2
	note G#, 2
	note F_, 2
	note F#, 2
	octave 2
	note F_, 2
	note F#, 2
	octave 3
	note F_, 1
	note F_, 2
	note F#, 2
	note G#, 1
	note A#, 2
	note A#, 2
	note G#, 2
	note F#, 2
	note G#, 2
	note G#, 2
	note G#, 2
	note F#, 2
	note F#, 2
	octave 4
	note F_, 2
	note F#, 2
	volume_envelope 6, 8
	note C#, 2
	volume_envelope 5, 8
	note D#, 2
	octave 3
	volume_envelope 4, 8
	note G#, 2
	volume_envelope 3, 8
	octave 4
	note C#, 2
	volume_envelope 2, 8
	note D#, 2
	note G#, 2
	octave 8
	sound_loop 0, .mainLoop

Music_AreaZero_Ch2:
	note_type 12, 15, 8
.mainLoop:
	vibrato 0, 2, 6
	volume_envelope 10, 8
	note_type 12, 10, 8
	duty_cycle 1
	octave 4
	volume_envelope 1, 8
	note G#, 2
	note F_, 2
	note F#, 2
	note C#, 2
	volume_envelope 2, 8
	note D#, 2
	octave 3
	note G#, 2
	octave 4
	note C#, 2
	volume_envelope 3, 8
	note D#, 2
	note G#, 2
	note F_, 2
	volume_envelope 4, 8
	note F#, 2
	note C#, 2
	note D#, 2
	octave 3
	volume_envelope 5, 8
	note G#, 2
	octave 4
	note C#, 2
	note D#, 2
	note G#, 2
	note F_, 2
	note F#, 2
	note C#, 2
	note D#, 2
	octave 3
	note G#, 2
	octave 4
	note C#, 2
	note D#, 2
	note G#, 2
	note F_, 2
	note F#, 2
	note C#, 2
	note D#, 2
	octave 3
	note G#, 2
	octave 4
	note C#, 2
	note D#, 2
	note G#, 2
	note F_, 2
	note F#, 2
	note C#, 2
	note D#, 2
	octave 3
	note G#, 2
	octave 4
	note C#, 2
	note D#, 2
	note G#, 2
	note F_, 2
	note F#, 2
	note C#, 2
	note D#, 2
	octave 3
	note G#, 2
	octave 4
	note C#, 2
	note D#, 2
	note G#, 2
	note F_, 2
	note F#, 2
	note C#, 2
	note D#, 2
	octave 3
	note G#, 1
	note G#, 1
	octave 4
	note C#, 2
	note D#, 2
	note G#, 2
	note F_, 2
	note F#, 2
	note C#, 2
	note D#, 2
	octave 3
	note G#, 2
	octave 4
	note C#, 2
	note D#, 2
	note_type 12, 15, 8
	octave 3
	note D#, 14
	rest 2
	note D#, 2
	volume_envelope 2, 8
	octave 4
	note F_, 2
	note F#, 2
	note C#, 2
	note D#, 2
	octave 3
	note G#, 2
	octave 4
	note C#, 2
	note D#, 2
	note G#, 2
	note F_, 2
	note F#, 2
	note C#, 2
	note D#, 2
	octave 3
	note G#, 2
	octave 4
	note C#, 2
	note D#, 2
	octave 3
	volume_envelope 15, 4
	note A#, 8
	volume_envelope 2, 8
	octave 4
	note D#, 2
	octave 3
	note G#, 2
	octave 4
	note C#, 2
	note D#, 2
	octave 3
	volume_envelope 15, 4
	note A#, 8
	volume_envelope 2, 8
	octave 4
	note D#, 2
	octave 3
	note G#, 2
	octave 4
	note C#, 2
	note D#, 2
	volume_envelope 15, 4
	note C#, 8
	volume_envelope 2, 8
	note D#, 2
	octave 3
	note G#, 2
	octave 4
	note C#, 2
	note D#, 2
	volume_envelope 15, 4
	note D#, 8
	octave 3
	note A#, 8
	note F#, 8
	volume_envelope 4, 8
	octave 4
	note D#, 2
	octave 3
	note G#, 2
	octave 4
	note C#, 2
	note D#, 2
	octave 3
	volume_envelope 15, 4
	note F#, 8
	volume_envelope 4, 8
	octave 4
	note D#, 2
	octave 3
	note G#, 2
	octave 4
	note C#, 2
	note D#, 2
	octave 3
	volume_envelope 15, 7
	note F#, 2
	volume_envelope 3, 8
	octave 4
	note F_, 2
	note F#, 2
	note C#, 2
	note D#, 2
	octave 3
	note G#, 2
	octave 4
	note C#, 2
	note D#, 2
	note G#, 2
	note F_, 2
	note F#, 2
	note C#, 2
	note D#, 2
	octave 3
	note G#, 2
	octave 4
	note C#, 2
	note D#, 2
	octave 3
	volume_envelope 15, 4
	note A#, 8
	volume_envelope 3, 8
	octave 4
	note D#, 2
	octave 3
	note G#, 2
	octave 4
	note C#, 2
	note D#, 2
	octave 3
	volume_envelope 15, 4
	note A#, 8
	volume_envelope 3, 8
	octave 4
	note D#, 2
	octave 3
	note G#, 2
	octave 4
	note C#, 2
	note D#, 2
	volume_envelope 15, 4
	note C#, 8
	volume_envelope 3, 8
	note D#, 2
	octave 3
	note G#, 2
	octave 4
	note C#, 2
	note D#, 2
	volume_envelope 15, 4
	note D#, 8
	note F#, 8
	note F_, 3
	volume_envelope 8, 7
	note F_, 1
	volume_envelope 4, 7
	note F_, 1
	volume_envelope 2, 7
	note F_, 1
	note F_, 1
	volume_envelope 1, 7
	note F_, 1
	octave 3
	volume_envelope 6, -7
	note F#, 4
	note G#, 4
	vibrato 0, 5, 3
	octave 4
	note F_, 12
	note F#, 4
	note F_, 16
	note D#, 4
	note F_, 4
	octave 3
	note F#, 4
	octave 4
	note C#, 3
	note_type 6, 9, -6
	volume_envelope 6, -7
	note C_, 1
	octave 3
	note B_, 1
	note_type 12, 9, -6
	volume_envelope 6, -7
	note A#, 16
	volume_envelope 6, 8
	note A#, 4
	volume_envelope 6, -7
	note G#, 4
	note A#, 4
	octave 4
	note C#, 4
	octave 3
	note A#, 16
	note G#, 4
	note A#, 4
	note F#, 4
	note G#, 4
	note F_, 8
	note F#, 4
	note G#, 4
	volume_envelope 8, -7
	octave 4
	note F_, 12
	note F#, 4
	note F_, 16
	note F_, 4
	note F#, 4
	octave 5
	note C#, 4
	octave 4
	note B_, 4
	note A#, 16
	note A#, 4
	note F#, 4
	octave 5
	note C#, 4
	octave 4
	note B_, 4
	note A#, 16
	note G#, 4
	note A#, 4
	note F#, 4
	note G#, 4
	vibrato 0, 1, 3
	volume_envelope 12, 7
	note F_, 8
	volume_envelope 5, 7
	octave 3
	note D#, 2
	octave 2
	note G#, 2
	octave 4
	volume_envelope 12, 7
	note F#, 4
	note F_, 8
	octave 3
	volume_envelope 5, 7
	note G#, 2
	note D#, 2
	note G#, 2
	note D#, 2
	volume_envelope 12, 7
	octave 4
	note F_, 8
	volume_envelope 5, 7
	octave 3
	note D#, 2
	octave 2
	note G#, 2
	octave 4
	volume_envelope 12, 7
	note F#, 4
	note F_, 8
	note D#, 4
	octave 3
	note B_, 4
	octave 4
	note F_, 8
	volume_envelope 5, 7
	octave 3
	note D#, 2
	octave 2
	note G#, 2
	octave 4
	volume_envelope 12, 7
	note F#, 4
	note F_, 8
	octave 3
	volume_envelope 5, 7
	note G#, 2
	note D#, 2
	note G#, 2
	note D#, 2
	volume_envelope 12, 7
	octave 4
	note F_, 8
	rest 4
	note F#, 4
	note F_, 8
	note D#, 4
	octave 3
	note B_, 4
	octave 4
	note F_, 8
	volume_envelope 7, 7
	octave 2
	note F#, 2
	rest 1
	octave 3
	note C#, 1
	octave 4
	volume_envelope 12, 7
	note F#, 4
	note F_, 8
	volume_envelope 7, 7
	octave 2
	note F#, 2
	octave 3
	note D#, 1
	note C#, 1
	rest 1
	note F_, 2
	rest 1
	volume_envelope 12, 7
	octave 4
	note F_, 8
	rest 2
	volume_envelope 7, 7
	octave 3
	note F_, 2
	octave 4
	volume_envelope 12, 7
	note F#, 4
	note F_, 8
	note D#, 4
	octave 3
	note B_, 4
	octave 4
	note F_, 8
	octave 2
	volume_envelope 7, 7
	note F#, 2
	rest 1
	octave 3
	note C#, 1
	octave 4
	volume_envelope 12, 7
	note F#, 4
	note F_, 8
	octave 2
	volume_envelope 7, 7
	note F#, 2
	octave 3
	note D#, 2
	rest 1
	note F_, 2
	rest 1
	volume_envelope 12, 7
	octave 4
	note F_, 8
	octave 2
	volume_envelope 7, 7
	note F#, 2
	rest 1
	octave 3
	note F_, 2
	note F#, 1
	octave 4
	volume_envelope 12, 7
	note A#, 8
	octave 3
	volume_envelope 7, 7
	note A#, 2
	octave 4
	volume_envelope 12, 7
	note G#, 4
	note F#, 4
	note F_, 8
	octave 2
	volume_envelope 7, 7
	note F#, 2
	rest 1
	octave 3
	note C#, 1
	octave 4
	volume_envelope 12, 7
	note F#, 4
	note F_, 8
	octave 2
	volume_envelope 7, 7
	note F#, 2
	octave 3
	note D#, 1
	note C#, 1
	rest 1
	note F_, 2
	rest 1
	octave 4
	volume_envelope 12, 7
	note F_, 8
	octave 2
	volume_envelope 7, 7
	note F#, 2
	octave 3
	note F_, 2
	octave 4
	volume_envelope 12, 7
	note F#, 4
	note F_, 8
	note D#, 4
	octave 3
	note B_, 4
	octave 4
	note F_, 8
	octave 2
	volume_envelope 7, 7
	note F#, 2
	rest 1
	octave 3
	note C#, 1
	octave 4
	volume_envelope 12, 7
	note F#, 4
	note F_, 8
	octave 2
	volume_envelope 7, 7
	note F#, 2
	octave 3
	note D#, 1
	note C#, 1
	rest 2
	note F_, 2
	octave 4
	volume_envelope 12, 7
	note F_, 8
	octave 2
	volume_envelope 7, 7
	note F#, 2
	rest 1
	octave 3
	note F_, 2
	note F#, 1
	octave 4
	volume_envelope 12, 7
	note A#, 8
	rest 2
	note G#, 4
	note F#, 4
	octave 3
	volume_envelope 7, 7
	note F#, 2
	volume_envelope 5, 7
	octave 4
	note_type 12, 9, 7
	volume_envelope 4, 8
	note F_, 2
	note F#, 2
	note_type 12, 9, 7
	volume_envelope 3, 8
	note C#, 2
	note_type 12, 9, 7
	volume_envelope 2, 8
	note D#, 2
	octave 3
	note_type 12, 9, 7
	volume_envelope 2, 8
	note G#, 2
	note_type 12, 9, 7
	volume_envelope 2, 8
	octave 4
	note C#, 2
	note_type 12, 9, 7
	volume_envelope 1, 8
	note D#, 2
	note_type 12, 9, 7
	octave 8
	sound_loop 0, .mainLoop

Music_AreaZero_Ch3:
	note_type 12, 1, 0
.mainLoop:
	volume_envelope 3, 1
	octave 2
	note_type 12, 3, 1
	rest 2
	note_type 12, 2, 2
	volume_envelope 3, 1
	rest 2
	note_type 12, 2, 2
	volume_envelope 3, 1
	rest 2
	note_type 12, 2, 2
	volume_envelope 3, 1
	rest 2
	note_type 12, 2, 2
	volume_envelope 3, 1
	rest 2
	note_type 12, 2, 2
	volume_envelope 3, 1
	rest 2
	note_type 12, 2, 2
	volume_envelope 3, 1
	rest 2
	note_type 12, 2, 2
	volume_envelope 3, 1
	rest 2
	note_type 12, 2, 2
	volume_envelope 3, 1
	rest 2
	note_type 12, 2, 2
	volume_envelope 3, 1
	rest 2
	note_type 12, 2, 2
	volume_envelope 3, 1
	rest 2
	note_type 12, 2, 2
	volume_envelope 3, 1
	rest 2
	note_type 12, 2, 2
	volume_envelope 3, 1
	rest 2
	note_type 12, 2, 2
	volume_envelope 3, 1
	rest 2
	note_type 12, 2, 2
	volume_envelope 3, 1
	rest 2
	note_type 12, 2, 2
	volume_envelope 3, 1
	rest 2
	note_type 12, 2, 2
	volume_envelope 3, 1
	vibrato 0, 3, 5
	note D#, 2
	note_type 12, 2, 2
	volume_envelope 3, 1
	note D#, 2
	note_type 12, 2, 2
	volume_envelope 3, 1
	note D#, 2
	note_type 12, 2, 2
	volume_envelope 3, 1
	note D#, 2
	note_type 12, 2, 2
	volume_envelope 3, 1
	note D#, 2
	note_type 12, 2, 2
	volume_envelope 3, 1
	note D#, 2
	note_type 12, 2, 2
	volume_envelope 3, 1
	note D#, 2
	note_type 12, 2, 2
	volume_envelope 3, 1
	note D#, 2
	note_type 12, 2, 2
	volume_envelope 3, 1
	note D#, 2
	note_type 12, 2, 2
	volume_envelope 3, 1
	note D#, 2
	note_type 12, 2, 2
	volume_envelope 3, 1
	note D#, 2
	note_type 12, 2, 2
	volume_envelope 3, 1
	note D#, 2
	note_type 12, 2, 2
	volume_envelope 3, 1
	note D#, 2
	note_type 12, 2, 2
	volume_envelope 3, 1
	note D#, 2
	note_type 12, 2, 2
	volume_envelope 3, 1
	note D#, 2
	note_type 12, 2, 2
	volume_envelope 3, 1
	note D#, 2
	note_type 12, 2, 2
	volume_envelope 3, 2
	octave 3
	note F_, 2
	note_type 12, 2, 2
	volume_envelope 3, 2
	note F#, 2
	note_type 12, 2, 2
	volume_envelope 3, 2
	note C#, 2
	note_type 12, 2, 2
	volume_envelope 3, 2
	note D#, 2
	note_type 12, 2, 2
	volume_envelope 3, 2
	octave 2
	note G#, 2
	note_type 12, 2, 2
	volume_envelope 3, 2
	octave 3
	note C#, 2
	note_type 12, 2, 2
	volume_envelope 3, 2
	note D#, 2
	note_type 12, 2, 2
	volume_envelope 3, 2
	note G#, 2
	note_type 12, 2, 2
	note F_, 2
	note F#, 2
	volume_envelope 3, 1
	note_type 12, 2, 2
	note C#, 2
	volume_envelope 3, 1
	note_type 12, 2, 2
	note D#, 2
	volume_envelope 3, 1
	note_type 12, 2, 2
	octave 2
	note G#, 2
	volume_envelope 3, 1
	note_type 12, 2, 2
	octave 3
	note C#, 2
	volume_envelope 3, 1
	note_type 12, 2, 2
	note D#, 2
	volume_envelope 3, 1
	note_type 12, 2, 2
	note G#, 2
	volume_envelope 3, 1
	note_type 12, 2, 2
	volume_envelope 1, 2
	note F_, 2
	volume_envelope 3, 1
	note_type 12, 2, 2
	volume_envelope 1, 2
	note F#, 2
	volume_envelope 3, 1
	note_type 12, 2, 2
	volume_envelope 1, 2
	note C#, 2
	volume_envelope 3, 1
	note_type 12, 2, 2
	volume_envelope 1, 2
	note D#, 2
	volume_envelope 3, 1
	note_type 12, 2, 2
	volume_envelope 1, 2
	octave 2
	note G#, 2
	volume_envelope 3, 1
	note_type 12, 2, 2
	volume_envelope 1, 2
	octave 3
	note C#, 2
	volume_envelope 3, 1
	note_type 12, 2, 2
	volume_envelope 1, 2
	note D#, 2
	volume_envelope 3, 1
	note_type 12, 2, 2
	volume_envelope 1, 2
	note G#, 2
	octave 2
	volume_envelope 3, 1
	note_type 12, 2, 2
	volume_envelope 1, 1
	note F_, 16
	volume_envelope 3, 1
	note_type 12, 2, 2
	volume_envelope 1, 1
	note F_, 16
	note_type 12, 2, 2
	volume_envelope 1, 1
	note F_, 4
	volume_envelope 3, 1
	note_type 12, 2, 2
	volume_envelope 1, 1
	note F_, 4
	volume_envelope 3, 1
	note_type 12, 2, 2
	volume_envelope 2, 1
	note F_, 4
	volume_envelope 3, 1
	note_type 12, 2, 2
	volume_envelope 2, 1
	note F_, 4
	volume_envelope 3, 1
	note_type 12, 2, 2
	volume_envelope 2, 1
	note F_, 4
	volume_envelope 3, 1
	note_type 12, 1, 2
	volume_envelope 3, 1
	note F_, 4
	note_type 12, 1, 2
	volume_envelope 3, 1
	note F_, 4
	note_type 12, 1, 2
	volume_envelope 2, 1
	note F_, 4
	volume_envelope 3, 1
	note_type 12, 1, 2
	volume_envelope 1, 1
	note F#, 1
	octave 3
	note F#, 1
	volume_envelope 3, 1
	note_type 12, 1, 2
	volume_envelope 1, 1
	note F#, 2
	octave 2
	volume_envelope 3, 1
	note_type 12, 1, 2
	volume_envelope 1, 1
	note F#, 1
	octave 3
	note F#, 1
	octave 2
	volume_envelope 3, 1
	note_type 12, 1, 2
	volume_envelope 1, 1
	note F#, 2
	volume_envelope 3, 1
	note_type 12, 1, 2
	volume_envelope 1, 1
	note F#, 1
	octave 3
	note F#, 1
	volume_envelope 3, 1
	note_type 12, 1, 2
	volume_envelope 1, 1
	note F#, 2
	octave 2
	volume_envelope 3, 1
	note_type 12, 1, 2
	volume_envelope 1, 1
	note F#, 1
	octave 3
	note F#, 1
	octave 2
	volume_envelope 3, 1
	note_type 12, 1, 2
	volume_envelope 1, 1
	note F#, 2
	volume_envelope 3, 1
	note_type 12, 1, 2
	volume_envelope 1, 1
	note F#, 1
	octave 3
	note F#, 1
	volume_envelope 3, 1
	note_type 12, 1, 2
	volume_envelope 1, 1
	note F#, 2
	octave 2
	volume_envelope 3, 1
	note_type 12, 1, 2
	volume_envelope 1, 1
	note F#, 1
	octave 3
	note F#, 1
	octave 2
	volume_envelope 3, 1
	note_type 12, 1, 2
	volume_envelope 1, 1
	note F#, 2
	volume_envelope 3, 1
	note_type 12, 1, 2
	volume_envelope 1, 1
	note F#, 1
	octave 3
	note F#, 1
	volume_envelope 3, 1
	note_type 12, 1, 2
	volume_envelope 1, 1
	note F#, 1
	octave 2
	note F#, 1
	volume_envelope 3, 1
	note_type 12, 1, 2
	volume_envelope 1, 1
	octave 3
	note F#, 1
	octave 2
	note F#, 1
	volume_envelope 3, 1
	note_type 12, 1, 2
	volume_envelope 1, 1
	octave 3
	note F#, 1
	note F#, 1
	volume_envelope 3, 1
	note_type 12, 1, 2
	volume_envelope 1, 1
	octave 2
	note A#, 1
	octave 3
	note A#, 1
	volume_envelope 3, 1
	note_type 12, 1, 2
	volume_envelope 1, 1
	note A#, 2
	octave 2
	volume_envelope 3, 1
	note_type 12, 1, 2
	volume_envelope 1, 1
	note A#, 1
	octave 3
	note A#, 1
	octave 2
	volume_envelope 3, 1
	note_type 12, 1, 2
	volume_envelope 1, 1
	note A#, 2
	volume_envelope 3, 1
	note_type 12, 1, 2
	volume_envelope 1, 1
	note A#, 1
	octave 3
	note A#, 1
	volume_envelope 3, 1
	note_type 12, 1, 2
	volume_envelope 1, 1
	note A#, 2
	octave 2
	volume_envelope 3, 1
	note_type 12, 1, 2
	volume_envelope 1, 1
	note A#, 1
	octave 3
	note A#, 1
	octave 2
	volume_envelope 3, 1
	note_type 12, 1, 2
	volume_envelope 1, 1
	note A#, 2
	volume_envelope 3, 1
	note_type 12, 1, 2
	volume_envelope 1, 1
	note F#, 1
	octave 3
	note F#, 1
	volume_envelope 3, 1
	note_type 12, 1, 2
	volume_envelope 1, 1
	note F#, 2
	octave 2
	volume_envelope 3, 1
	note_type 12, 1, 2
	volume_envelope 1, 1
	note F#, 1
	octave 3
	note F#, 1
	octave 2
	volume_envelope 3, 1
	note_type 12, 1, 2
	volume_envelope 1, 1
	note F#, 2
	volume_envelope 3, 1
	note_type 12, 1, 2
	volume_envelope 1, 1
	note D#, 1
	octave 3
	note D#, 1
	volume_envelope 3, 1
	note_type 12, 1, 2
	volume_envelope 1, 1
	note D#, 1
	octave 2
	note D#, 1
	volume_envelope 3, 1
	note_type 12, 1, 2
	volume_envelope 1, 1
	octave 3
	note D#, 1
	octave 2
	note D#, 1
	volume_envelope 3, 1
	note_type 12, 1, 2
	volume_envelope 1, 1
	octave 3
	note D#, 1
	note D#, 1
	volume_envelope 3, 1
	note_type 12, 1, 2
	volume_envelope 1, 1
	octave 2
	note D#, 2
	volume_envelope 3, 1
	note_type 12, 1, 2
	volume_envelope 1, 1
	note D#, 2
	volume_envelope 3, 1
	note_type 12, 1, 2
	volume_envelope 1, 1
	octave 3
	note D#, 1
	octave 2
	note D#, 1
	volume_envelope 3, 1
	note_type 12, 1, 2
	volume_envelope 1, 1
	octave 3
	note D#, 1
	octave 2
	note D#, 1
	volume_envelope 3, 1
	note_type 12, 1, 2
	volume_envelope 1, 1
	note D#, 2
	volume_envelope 3, 1
	note_type 12, 1, 2
	volume_envelope 1, 1
	note D#, 2
	volume_envelope 3, 1
	note_type 12, 1, 2
	volume_envelope 1, 1
	octave 3
	note D#, 1
	octave 2
	note D#, 1
	volume_envelope 3, 1
	note_type 12, 1, 2
	volume_envelope 1, 1
	octave 3
	note D#, 1
	note D#, 1
	volume_envelope 3, 1
	note_type 12, 1, 2
	volume_envelope 1, 1
	octave 2
	note D#, 2
	volume_envelope 3, 1
	note_type 12, 1, 2
	volume_envelope 1, 1
	note D#, 2
	volume_envelope 3, 1
	note_type 12, 1, 2
	volume_envelope 1, 1
	octave 3
	note D#, 1
	octave 2
	note D#, 1
	volume_envelope 3, 1
	note_type 12, 1, 2
	volume_envelope 1, 1
	octave 3
	note D#, 1
	octave 2
	note D#, 1
	volume_envelope 3, 1
	note_type 12, 1, 2
	volume_envelope 1, 1
	note D#, 2
	volume_envelope 3, 1
	note_type 12, 1, 2
	volume_envelope 1, 1
	note D#, 2
	volume_envelope 3, 1
	note_type 12, 1, 2
	volume_envelope 1, 1
	octave 3
	note D#, 1
	octave 2
	note D#, 1
	octave 3
	note D#, 1
	note D#, 1
	volume_envelope 3, 1
	note_type 12, 1, 2
	volume_envelope 1, 1
	octave 2
	note D#, 1
	note D#, 1
	volume_envelope 3, 1
	note_type 12, 1, 2
	volume_envelope 1, 1
	note D#, 2
	volume_envelope 3, 1
	note_type 12, 1, 2
	volume_envelope 1, 1
	octave 3
	note D#, 1
	octave 2
	note D#, 1
	volume_envelope 3, 1
	note_type 12, 1, 2
	volume_envelope 1, 1
	octave 3
	note D#, 1
	octave 2
	note D#, 1
	volume_envelope 3, 1
	note_type 12, 1, 2
	volume_envelope 1, 1
	note D#, 1
	note D#, 1
	volume_envelope 3, 1
	note_type 12, 1, 2
	volume_envelope 3, 1
	note D#, 2
	note_type 12, 1, 2
	volume_envelope 3, 1
	octave 3
	note D#, 1
	octave 2
	note D#, 1
	note_type 12, 1, 2
	volume_envelope 3, 1
	octave 3
	note D#, 1
	note D#, 1
	note_type 12, 1, 2
	volume_envelope 3, 1
	octave 2
	note D#, 1
	note D#, 1
	note_type 12, 1, 2
	volume_envelope 3, 1
	note D#, 2
	note_type 12, 1, 2
	volume_envelope 3, 1
	octave 3
	note D#, 1
	octave 2
	note D#, 1
	note_type 12, 1, 2
	volume_envelope 3, 1
	octave 3
	note D#, 1
	octave 2
	note D#, 1
	note_type 12, 1, 2
	volume_envelope 3, 1
	note D#, 1
	volume_envelope 2, 1
	note D#, 1
	note_type 12, 1, 2
	volume_envelope 2, 1
	note D#, 2
	note_type 12, 1, 2
	volume_envelope 2, 1
	octave 3
	note D#, 1
	volume_envelope 1, 1
	octave 2
	note D#, 1
	note_type 12, 1, 2
	volume_envelope 1, 1
	octave 3
	note D#, 1
	note D#, 1
	octave 2
	note_type 12, 1, 2
	volume_envelope 1, 1
	note F#, 1
	note F#, 1
	note_type 12, 1, 2
	volume_envelope 1, 1
	note F#, 2
	volume_envelope 3, 1
	note_type 12, 1, 2
	volume_envelope 1, 1
	octave 3
	note F#, 1
	octave 2
	note F#, 1
	volume_envelope 3, 1
	note_type 12, 1, 2
	volume_envelope 1, 1
	note F#, 2
	volume_envelope 3, 1
	note_type 12, 1, 2
	volume_envelope 1, 1
	octave 3
	note F#, 1
	octave 2
	note F#, 1
	volume_envelope 3, 1
	note_type 12, 1, 2
	volume_envelope 1, 1
	note F#, 2
	volume_envelope 3, 1
	note_type 12, 1, 2
	volume_envelope 1, 1
	octave 3
	note F#, 1
	octave 2
	note F#, 1
	volume_envelope 3, 1
	note_type 12, 1, 2
	volume_envelope 1, 1
	octave 3
	note F#, 1
	octave 2
	note F#, 1
	volume_envelope 3, 1
	note_type 12, 1, 2
	volume_envelope 1, 1
	note F#, 1
	note F#, 1
	volume_envelope 3, 1
	note_type 12, 1, 2
	volume_envelope 1, 1
	note F#, 2
	volume_envelope 3, 1
	note_type 12, 1, 2
	volume_envelope 1, 1
	octave 3
	note F#, 1
	octave 2
	note F#, 1
	volume_envelope 3, 1
	note_type 12, 1, 2
	volume_envelope 1, 1
	note F#, 2
	volume_envelope 3, 1
	note_type 12, 1, 2
	volume_envelope 1, 1
	octave 3
	note F#, 1
	octave 2
	note F#, 1
	volume_envelope 3, 1
	note_type 12, 1, 2
	volume_envelope 1, 1
	note F#, 2
	volume_envelope 3, 1
	note_type 12, 1, 2
	volume_envelope 1, 1
	octave 3
	note F#, 1
	octave 2
	note F#, 1
	volume_envelope 3, 1
	note_type 12, 1, 2
	volume_envelope 1, 1
	octave 3
	note F#, 1
	octave 2
	note F#, 1
	volume_envelope 3, 1
	note_type 12, 1, 2
	volume_envelope 1, 1
	note A#, 2
	volume_envelope 3, 1
	note_type 12, 1, 2
	volume_envelope 1, 1
	note A#, 2
	volume_envelope 3, 1
	note_type 12, 1, 2
	volume_envelope 1, 1
	octave 3
	note A#, 1
	octave 2
	note A#, 1
	volume_envelope 3, 1
	note_type 12, 1, 2
	volume_envelope 1, 1
	note A#, 2
	volume_envelope 3, 1
	note_type 12, 1, 2
	volume_envelope 1, 1
	octave 3
	note A#, 1
	octave 2
	note A#, 1
	volume_envelope 3, 1
	note_type 12, 1, 2
	volume_envelope 1, 1
	note A#, 2
	volume_envelope 3, 1
	note_type 12, 1, 2
	volume_envelope 1, 1
	octave 3
	note A#, 1
	octave 2
	note A#, 1
	volume_envelope 3, 1
	note_type 12, 1, 2
	volume_envelope 1, 1
	octave 3
	note A#, 1
	octave 2
	note A#, 1
	volume_envelope 3, 1
	note_type 12, 1, 2
	volume_envelope 1, 1
	note A#, 2
	volume_envelope 3, 2
	note_type 12, 1, 2
	volume_envelope 1, 1
	note A#, 2
	volume_envelope 3, 2
	note_type 12, 1, 2
	volume_envelope 1, 1
	octave 3
	note A#, 1
	octave 2
	note A#, 1
	volume_envelope 3, 2
	note_type 12, 1, 2
	volume_envelope 1, 1
	note A#, 2
	volume_envelope 3, 2
	note_type 12, 1, 2
	volume_envelope 1, 1
	octave 4
	note C#, 1
	octave 3
	note C#, 1
	volume_envelope 3, 2
	note_type 12, 1, 2
	volume_envelope 1, 1
	note C#, 2
	volume_envelope 3, 2
	note_type 12, 1, 2
	volume_envelope 1, 1
	octave 4
	note C#, 1
	octave 3
	note C#, 1
	volume_envelope 3, 2
	note_type 12, 1, 2
	volume_envelope 1, 1
	octave 4
	note C#, 1
	octave 3
	note C#, 1
	volume_envelope 3, 2
	note_type 12, 1, 2
	volume_envelope 1, 1
	note D#, 2
	note_type 12, 2, 2
	volume_envelope 1, 1
	note D#, 1
	octave 4
	note D#, 1
	note_type 12, 2, 2
	volume_envelope 1, 1
	octave 3
	note D#, 1
	octave 4
	note D#, 1
	note_type 12, 2, 2
	volume_envelope 1, 1
	octave 3
	note D#, 1
	octave 4
	note D#, 1
	note_type 12, 2, 2
	volume_envelope 1, 1
	octave 1
	note F#, 2
	octave 2
	note G#, 1
	octave 1
	note F#, 1
	note G#, 2
	octave 2
	note G#, 1
	octave 1
	note G#, 1
	octave 2
	note C#, 2
	octave 3
	note C#, 1
	octave 2
	note C#, 1
	note C#, 2
	volume_envelope 3, 2
	note_type 12, 2, 2
	volume_envelope 1, 1
	octave 3
	note C#, 1
	octave 2
	note C#, 1
	octave 3
	note C#, 1
	octave 2
	note C#, 1
	octave 3
	note C#, 1
	octave 2
	note C#, 1
	note D#, 2
	volume_envelope 3, 2
	note_type 12, 2, 2
	volume_envelope 1, 1
	note D#, 2
	note C#, 2
	octave 3
	note C#, 1
	octave 2
	note C#, 1
	note C#, 2
	octave 3
	note C#, 1
	octave 2
	note C#, 1
	note C#, 2
	octave 3
	note C#, 1
	octave 2
	note C#, 1
	octave 3
	note C#, 1
	octave 2
	note C#, 1
	octave 3
	note C#, 1
	octave 2
	note C#, 1
	note D#, 2
	octave 3
	note D#, 1
	octave 2
	note D#, 1
	note F_, 2
	volume_envelope 3, 2
	note_type 12, 2, 2
	volume_envelope 1, 1
	octave 3
	note F_, 1
	octave 2
	note F_, 1
	octave 1
	note F#, 2
	octave 2
	note F#, 1
	octave 1
	note F#, 1
	octave 3
	note C#, 1
	octave 2
	note C#, 1
	volume_envelope 3, 2
	note_type 12, 2, 2
	volume_envelope 1, 1
	octave 3
	note C#, 1
	note_type 6, 1, 2
	volume_envelope 1, 1
	octave 2
	note C_, 1
	octave 1
	note B_, 1
	note_type 12, 1, 2
	volume_envelope 1, 1
	note F#, 2
	octave 2
	note F#, 1
	octave 1
	note F#, 1
	note F#, 2
	octave 2
	note F#, 1
	octave 1
	note F#, 1
	note F#, 2
	octave 2
	note F#, 1
	octave 1
	note F#, 1
	octave 2
	note F#, 1
	octave 1
	note F#, 1
	octave 2
	note F#, 1
	octave 1
	note F#, 1
	note F#, 2
	octave 2
	note F#, 1
	octave 1
	note F#, 1
	note G#, 2
	octave 2
	note G#, 1
	octave 1
	note G#, 1
	volume_envelope 3, 2
	note_type 12, 2, 2
	volume_envelope 1, 1
	note A#, 2
	octave 2
	note A#, 1
	octave 1
	note A#, 1
	octave 3
	note C#, 1
	octave 2
	note C#, 1
	octave 3
	note C#, 1
	octave 2
	note C#, 1
	volume_envelope 3, 2
	note_type 12, 2, 2
	volume_envelope 1, 1
	octave 1
	note F#, 2
	octave 2
	note F#, 1
	octave 1
	note F#, 1
	note F#, 2
	octave 2
	note F#, 1
	octave 1
	note F#, 1
	note F#, 2
	octave 2
	note F#, 1
	octave 1
	note F#, 1
	octave 2
	note F#, 1
	octave 1
	note F#, 1
	octave 2
	note F#, 1
	octave 1
	note F#, 1
	note G#, 2
	octave 2
	note G#, 1
	octave 1
	note G#, 1
	note A#, 2
	octave 2
	note A#, 1
	octave 1
	note A#, 1
	note F#, 2
	octave 2
	note F#, 1
	octave 1
	note F#, 1
	octave 2
	note G#, 1
	octave 1
	note G#, 1
	octave 2
	note G#, 1
	octave 1
	note G#, 1
	note F_, 2
	octave 2
	note F_, 1
	note F_, 1
	octave 1
	note F_, 2
	octave 2
	note F_, 1
	octave 1
	note F_, 1
	note F#, 2
	octave 2
	note F#, 1
	note F#, 1
	octave 1
	note G#, 2
	octave 2
	note G#, 1
	octave 1
	note G#, 1
	note A#, 2
	octave 2
	note A#, 1
	note A#, 1
	octave 1
	note A#, 2
	octave 2
	note A#, 1
	octave 1
	note A#, 1
	note A#, 2
	octave 2
	note A#, 1
	note A#, 1
	note D#, 2
	octave 3
	note D#, 1
	octave 2
	note D#, 1
	octave 1
	note A#, 2
	octave 2
	note A#, 1
	note A#, 1
	octave 1
	note A#, 2
	octave 2
	note A#, 1
	octave 1
	note A#, 1
	note A#, 2
	octave 2
	note A#, 1
	note A#, 1
	octave 1
	note A#, 2
	octave 2
	note A#, 1
	octave 1
	note A#, 1
	note A#, 2
	octave 2
	note A#, 1
	note A#, 1
	octave 1
	note F#, 2
	octave 2
	note F#, 1
	octave 1
	note F#, 1
	octave 2
	note C#, 2
	octave 3
	note C#, 1
	note C#, 1
	octave 2
	note F_, 2
	octave 3
	note F_, 1
	octave 2
	note F_, 1
	octave 3
	note C#, 1
	octave 2
	note C#, 1
	octave 3
	note C#, 1
	octave 2
	note C#, 1
	note C#, 3
	octave 3
	note C#, 1
	note C#, 1
	octave 2
	note C#, 1
	octave 3
	note C#, 1
	octave 2
	note C#, 1
	note C#, 3
	octave 3
	note C#, 1
	note C#, 1
	octave 2
	note C#, 1
	octave 3
	note C#, 1
	octave 2
	note C#, 1
	note F#, 3
	octave 3
	note F#, 1
	note F#, 1
	note C#, 1
	octave 4
	note C#, 1
	octave 3
	note C#, 1
	octave 2
	note F_, 3
	octave 3
	note F_, 1
	note F#, 1
	octave 2
	note F#, 1
	octave 3
	note F#, 1
	octave 2
	note F#, 1
	note F#, 3
	octave 3
	note F#, 1
	note F#, 1
	octave 2
	note F#, 1
	octave 3
	note F#, 1
	octave 2
	note F#, 1
	note F#, 3
	octave 3
	note F#, 1
	note D#, 1
	octave 2
	note D#, 1
	octave 3
	note D#, 1
	octave 2
	note D#, 1
	note D#, 3
	octave 3
	note D#, 1
	octave 1
	note D#, 1
	octave 2
	note D#, 1
	octave 1
	note D#, 1
	octave 2
	note D#, 1
	note D#, 3
	note D#, 1
	note D#, 1
	note D#, 2
	note_type 12, 1, 2
	volume_envelope 1, 1
	octave 3
	note C#, 1
	octave 2
	note D#, 2
	octave 3
	note D#, 1
	octave 2
	note D#, 2
	octave 3
	note C#, 1
	octave 2
	note D#, 2
	note E_, 2
	octave 3
	note C#, 1
	octave 2
	note E_, 1
	note D#, 2
	note C#, 1
	note D#, 3
	octave 3
	note C#, 1
	octave 2
	note D#, 3
	note C#, 1
	note D#, 3
	octave 3
	note C#, 1
	octave 2
	rest 1
	note D#, 2
	octave 3
	note D#, 1
	octave 2
	note D#, 2
	octave 3
	note D#, 1
	octave 2
	note D#, 2
	octave 3
	note D#, 1
	octave 2
	note D#, 2
	octave 3
	note D#, 1
	octave 2
	note E_, 2
	note C#, 1
	note E_, 1
	note D#, 2
	note C#, 1
	note D#, 3
	note C#, 1
	note_type 12, 1, 2
	volume_envelope 1, 1
	note D#, 1
	note C#, 2
	note_type 12, 1, 2
	volume_envelope 1, 1
	note C#, 2
	octave 1
	note A_, 2
	octave 2
	note C#, 1
	octave 1
	note A_, 1
	octave 2
	note D#, 2
	octave 3
	note D#, 1
	octave 2
	note D#, 1
	octave 3
	note D#, 1
	octave 2
	note D#, 1
	note D#, 2
	octave 3
	note D#, 1
	octave 2
	note D#, 1
	octave 3
	note D#, 1
	octave 2
	note D#, 1
	note E_, 2
	note C#, 1
	note E_, 1
	note D#, 2
	octave 3
	note C#, 1
	octave 2
	note D#, 3
	note C#, 1
	note D#, 3
	octave 3
	note C#, 1
	octave 2
	note D#, 3
	note C#, 1
	note_type 6, 1, 2
	rest 2
	note_type 12, 1, 2
	volume_envelope 1, 1
	note D#, 2
	octave 3
	note D#, 1
	octave 2
	note D#, 1
	octave 3
	note D#, 1
	octave 2
	note D#, 1
	note D#, 2
	octave 3
	note D#, 1
	octave 2
	note D#, 1
	octave 3
	note D#, 1
	octave 2
	note D#, 1
	note E_, 2
	note_type 12, 2, 2
	volume_envelope 1, 1
	note C#, 1
	note E_, 1
	note_type 12, 2, 2
	volume_envelope 1, 1
	note D#, 2
	note_type 12, 2, 2
	volume_envelope 1, 1
	octave 3
	note C#, 1
	octave 2
	volume_envelope 3, 2
	note_type 12, 1, 2
	volume_envelope 1, 1
	note D#, 3
	note C#, 1
	note D#, 1
	note C#, 2
	octave 3
	note C#, 1
	octave 2
	note C#, 1
	octave 1
	note A_, 2
	octave 2
	note C#, 1
	octave 1
	note A_, 1
	octave 2
	note D#, 2
	octave 3
	note D#, 1
	octave 2
	note D#, 1
	octave 3
	note D#, 1
	octave 2
	note D#, 1
	octave 3
	note D#, 1
	note D#, 1
	octave 2
	note D#, 2
	octave 3
	note D#, 1
	octave 2
	note D#, 1
	octave 3
	note E_, 1
	octave 2
	note E_, 1
	octave 3
	note E_, 1
	note E_, 1
	octave 2
	note D#, 2
	octave 3
	note D#, 1
	octave 2
	note D#, 1
	octave 3
	note D#, 1
	octave 2
	note D#, 1
	octave 3
	note D#, 1
	note D#, 1
	octave 2
	note D#, 2
	octave 3
	note D#, 1
	octave 2
	note D#, 1
	octave 3
	note D#, 1
	octave 2
	note D#, 1
	octave 3
	note D#, 1
	note D#, 1
	octave 2
	note D#, 2
	octave 3
	note D#, 1
	octave 2
	note D#, 1
	octave 3
	note D#, 1
	octave 2
	note D#, 1
	octave 3
	note D#, 1
	note D#, 1
	octave 2
	note D#, 2
	octave 3
	note D#, 1
	octave 2
	note D#, 1
	octave 3
	note E_, 1
	octave 2
	note E_, 1
	octave 3
	note E_, 1
	note E_, 1
	octave 2
	note D#, 2
	octave 3
	note D#, 1
	octave 2
	note D#, 1
	octave 3
	note D#, 1
	octave 2
	note D#, 1
	octave 3
	note D#, 1
	note D#, 1
	octave 2
	note C#, 2
	octave 3
	note C#, 1
	octave 2
	note C#, 1
	note A_, 1
	octave 1
	note A_, 1
	octave 2
	note A_, 1
	note A_, 1
	note D#, 2
	octave 3
	note D#, 1
	octave 2
	note D#, 1
	octave 3
	note D#, 1
	octave 2
	note D#, 1
	octave 3
	note D#, 1
	note D#, 1
	octave 2
	note D#, 2
	octave 3
	note D#, 1
	octave 2
	note D#, 1
	octave 3
	note E_, 1
	note C#, 1
	note E_, 1
	note E_, 1
	octave 2
	note D#, 1
	octave 3
	note C#, 1
	note D#, 1
	octave 2
	note D#, 1
	octave 3
	note D#, 1
	note C#, 1
	note D#, 1
	note D#, 1
	octave 2
	note D#, 1
	octave 3
	note C#, 1
	note D#, 1
	octave 2
	note D#, 1
	octave 3
	note D#, 1
	note C#, 1
	note D#, 1
	note D#, 1
	octave 2
	note D#, 2
	octave 3
	note D#, 1
	octave 2
	note D#, 1
	octave 3
	note D#, 1
	octave 2
	note D#, 1
	octave 3
	note D#, 1
	note D#, 1
	octave 2
	note D#, 2
	octave 3
	note D#, 1
	octave 2
	note D#, 1
	octave 3
	note D#, 1
	octave 2
	note D#, 1
	note B_, 1
	note B_, 1
	octave 1
	note B_, 2
	octave 2
	note B_, 1
	octave 1
	note B_, 1
	octave 2
	note B_, 1
	octave 1
	note B_, 1
	octave 2
	note B_, 1
	note B_, 1
	note C#, 2
	octave 3
	note C#, 1
	octave 2
	note C#, 1
	octave 3
	note C#, 1
	octave 2
	note C#, 1
	octave 3
	note C#, 1
	note C#, 1
	octave 2
	note D#, 2
	octave 3
	note D#, 1
	octave 2
	note D#, 1
	octave 3
	note D#, 1
	octave 2
	note D#, 1
	octave 3
	note D#, 1
	note D#, 1
	octave 2
	note D#, 2
	octave 3
	note D#, 1
	octave 2
	note D#, 1
	octave 3
	note E_, 1
	octave 2
	note E_, 1
	octave 3
	note E_, 1
	note E_, 1
	octave 2
	note D#, 2
	octave 3
	note D#, 1
	octave 2
	note D#, 1
	octave 3
	note D#, 1
	octave 2
	note D#, 1
	octave 3
	note D#, 1
	note D#, 1
	octave 2
	note D#, 2
	octave 3
	note D#, 1
	octave 2
	note D#, 1
	octave 3
	note D#, 1
	octave 2
	note D#, 1
	octave 3
	note D#, 1
	note D#, 1
	octave 2
	note D#, 2
	octave 3
	note D#, 1
	octave 2
	note D#, 1
	octave 3
	note D#, 1
	octave 2
	note D#, 1
	octave 3
	note D#, 1
	note D#, 1
	octave 2
	note D#, 2
	octave 3
	note D#, 1
	octave 2
	note D#, 1
	octave 3
	note E_, 1
	octave 2
	note E_, 1
	octave 3
	note E_, 1
	note E_, 1
	octave 2
	note D#, 2
	octave 3
	note D#, 1
	octave 2
	note D#, 1
	octave 3
	note D#, 1
	octave 2
	note D#, 1
	octave 3
	note D#, 1
	note D#, 1
	octave 2
	note C#, 2
	octave 3
	note C#, 1
	octave 2
	note C#, 1
	note A_, 1
	octave 1
	note A_, 1
	octave 2
	note A_, 1
	note A_, 1
	note D#, 2
	octave 3
	note D#, 1
	octave 2
	note D#, 1
	octave 3
	note D#, 1
	octave 2
	note D#, 1
	octave 3
	note D#, 1
	note D#, 1
	octave 2
	note D#, 2
	octave 3
	note D#, 1
	octave 2
	note D#, 1
	octave 3
	note E_, 1
	octave 2
	note E_, 1
	octave 3
	note E_, 1
	note E_, 1
	octave 2
	note D#, 2
	octave 3
	note D#, 1
	octave 2
	note D#, 1
	octave 3
	note D#, 1
	octave 2
	note D#, 1
	octave 3
	note D#, 1
	note D#, 1
	octave 2
	note D#, 2
	octave 3
	note D#, 1
	octave 2
	note D#, 1
	octave 3
	note D#, 1
	octave 2
	note D#, 1
	octave 3
	note D#, 1
	note D#, 1
	octave 2
	note D#, 2
	octave 3
	note D#, 1
	octave 2
	note D#, 1
	octave 3
	note D#, 1
	octave 2
	note D#, 1
	octave 3
	note D#, 1
	note D#, 1
	octave 2
	note D#, 2
	octave 3
	note D#, 1
	octave 2
	note D#, 1
	octave 3
	note D#, 1
	octave 2
	note D#, 1
	note B_, 1
	note B_, 1
	octave 1
	note B_, 2
	octave 2
	note B_, 1
	octave 1
	note B_, 1
	octave 2
	note B_, 1
	octave 1
	note B_, 1
	octave 2
	note B_, 1
	note B_, 1
	note C#, 2
	octave 3
	note C#, 1
	octave 2
	note C#, 1
	octave 3
	note C#, 1
	octave 2
	note C#, 1
	octave 3
	note C#, 1
	note C#, 1
	octave 2
	note D#, 2
	volume_envelope 2, 1
	note D#, 1
	note D#, 1
	note D#, 2
	volume_envelope 3, 1
	note D#, 2
	note D#, 2
	note D#, 2
	note D#, 2
	rest 2
	octave 8
	sound_loop 0, .mainLoop

Music_AreaZero_Ch4:
	toggle_noise 0
	drum_speed 12
.mainLoop:
	rest 16
	rest 16
	rest 16
	rest 16
	rest 16
	rest 16
	rest 16
	rest 16
	rest 16
	octave 6
	drum_note 12, 1
	rest 7
	drum_note 12, 1
	rest 7
	drum_note 12, 1
	rest 3
	drum_note 12, 1
	rest 3
	drum_note 12, 1
	rest 3
	drum_note 12, 1
	rest 1
	drum_note 12, 1
	drum_note 12, 1
	drum_speed 6
	octave 5
	drum_note 12, 1
	drum_note 12, 1
	drum_speed 12
	octave 6
	drum_note 4, 1
	drum_note 4, 1
	rest 1
	drum_note 4, 1
	rest 3
	drum_speed 6
	octave 5
	drum_note 12, 1
	drum_note 12, 1
	drum_speed 12
	octave 6
	drum_note 4, 1
	drum_note 4, 1
	rest 1
	drum_note 4, 1
	rest 3
	drum_speed 6
	octave 5
	drum_note 12, 1
	drum_note 12, 1
	drum_speed 12
	octave 6
	drum_note 4, 1
	drum_note 4, 1
	rest 1
	drum_note 4, 1
	rest 3
	drum_speed 6
	octave 5
	drum_note 12, 1
	drum_note 12, 1
	drum_speed 12
	octave 6
	drum_note 4, 1
	drum_note 4, 1
	rest 1
	drum_note 4, 1
	rest 1
	drum_speed 6
	drum_note 4, 1
	drum_note 4, 1
	drum_speed 12
	drum_note 4, 1
	drum_speed 6
	octave 5
	drum_note 12, 1
	drum_note 12, 1
	drum_speed 12
	octave 6
	drum_note 4, 1
	drum_note 4, 1
	rest 1
	drum_note 4, 1
	rest 3
	drum_speed 6
	octave 5
	drum_note 12, 1
	drum_note 12, 1
	drum_speed 12
	octave 6
	drum_note 4, 1
	drum_note 4, 1
	rest 1
	drum_note 4, 1
	rest 3
	drum_speed 6
	octave 5
	drum_note 12, 1
	drum_note 12, 1
	drum_speed 12
	octave 6
	drum_note 4, 1
	drum_note 4, 1
	rest 1
	drum_note 4, 1
	rest 3
	drum_speed 6
	octave 5
	drum_note 12, 1
	drum_note 12, 1
	drum_speed 12
	octave 6
	drum_note 4, 1
	drum_note 4, 1
	rest 1
	drum_note 4, 1
	rest 1
	drum_speed 6
	drum_note 4, 1
	drum_note 4, 1
	drum_speed 12
	drum_note 4, 1
	octave 5
	drum_note 12, 1
	rest 3
	octave 6
	drum_note 4, 1
	rest 3
	octave 5
	drum_note 11, 1
	rest 3
	octave 6
	drum_note 3, 1
	rest 2
	drum_note 3, 1
	octave 5
	drum_note 12, 1
	rest 3
	octave 6
	drum_note 3, 1
	rest 3
	octave 5
	drum_note 11, 1
	rest 3
	drum_speed 6
	octave 6
	drum_note 3, 1
	drum_note 3, 1
	drum_speed 12
	drum_note 1, 1
	drum_speed 6
	drum_note 2, 1
	drum_note 2, 1
	drum_note 3, 1
	drum_note 3, 1
	drum_speed 12
	octave 5
	drum_note 12, 1
	rest 3
	octave 6
	drum_note 3, 1
	rest 3
	octave 5
	drum_note 11, 1
	rest 3
	octave 6
	drum_note 3, 1
	rest 3
	octave 5
	drum_note 12, 1
	rest 3
	octave 6
	drum_note 3, 1
	rest 3
	octave 5
	drum_note 11, 1
	rest 3
	octave 6
	drum_note 3, 1
	rest 2
	drum_note 3, 1
	drum_speed 6
	octave 5
	drum_note 11, 1
	drum_note 11, 1
	drum_speed 12
	rest 1
	octave 6
	drum_note 3, 1
	rest 1
	octave 5
	drum_note 12, 1
	rest 2
	drum_speed 6
	rest 2
	drum_note 11, 1
	drum_note 11, 1
	drum_speed 12
	rest 1
	octave 6
	drum_note 3, 1
	rest 1
	octave 5
	drum_note 12, 1
	rest 1
	octave 6
	drum_note 6, 1
	drum_speed 6
	rest 2
	octave 5
	drum_note 11, 1
	drum_note 11, 1
	drum_speed 12
	rest 1
	octave 6
	drum_note 3, 1
	rest 1
	drum_note 6, 1
	rest 1
	drum_note 1, 1
	drum_speed 6
	rest 2
	octave 5
	drum_note 12, 1
	drum_note 12, 1
	drum_speed 12
	octave 6
	drum_note 4, 1
	drum_note 4, 1
	rest 3
	drum_note 4, 1
	drum_speed 6
	rest 2
	octave 5
	drum_note 12, 1
	drum_note 12, 1
	drum_speed 12
	octave 6
	drum_note 4, 1
	drum_note 4, 1
	rest 3
	drum_note 4, 1
	drum_speed 6
	drum_note 3, 1
	drum_note 3, 1
	octave 5
	drum_note 12, 1
	drum_note 12, 1
	drum_speed 12
	octave 6
	drum_note 4, 1
	drum_note 4, 1
	rest 1
	drum_note 4, 1
	rest 1
	drum_speed 6
	drum_note 3, 1
	drum_note 4, 1
	drum_note 3, 1
	drum_note 4, 1
	octave 5
	drum_note 12, 1
	drum_note 12, 1
	drum_speed 12
	octave 6
	drum_note 4, 1
	drum_note 4, 1
	rest 3
	drum_note 4, 1
	drum_speed 6
	drum_note 3, 1
	drum_note 3, 1
	octave 5
	drum_note 12, 1
	drum_note 12, 1
	drum_speed 12
	octave 6
	drum_note 4, 1
	drum_note 4, 1
	drum_note 3, 1
	octave 5
	drum_note 12, 1
	octave 6
	drum_note 4, 1
	drum_speed 6
	drum_note 3, 1
	drum_note 3, 1
	drum_note 3, 1
	drum_note 3, 1
	drum_speed 12
	drum_note 8, 1
	drum_speed 6
	rest 2
	drum_speed 12
	rest 2
	drum_note 8, 1
	rest 3
	drum_note 8, 1
	drum_speed 6
	rest 2
	drum_speed 12
	rest 2
	drum_note 8, 1
	rest 1
	drum_note 8, 1
	rest 1
	drum_note 8, 1
	rest 3
	drum_note 8, 1
	rest 3
	drum_note 8, 1
	rest 1
	drum_note 8, 1
	rest 1
	drum_note 8, 1
	drum_note 8, 1
	drum_note 8, 1
	drum_note 8, 1
	drum_note 8, 1
	rest 3
	drum_note 8, 1
	rest 3
	drum_note 8, 1
	rest 3
	drum_note 8, 1
	rest 1
	drum_note 8, 1
	rest 1
	drum_note 8, 1
	rest 3
	drum_note 8, 1
	rest 2
	drum_note 12, 1
	drum_note 8, 1
	drum_note 12, 1
	drum_note 8, 1
	drum_note 12, 1
	drum_note 8, 1
	drum_note 12, 1
	drum_note 8, 1
	drum_note 12, 1
	drum_note 8, 1
	rest 3
	drum_note 8, 1
	rest 3
	drum_note 8, 1
	rest 3
	drum_note 8, 1
	rest 3
	drum_note 8, 1
	rest 3
	drum_note 8, 1
	rest 3
	drum_note 8, 1
	rest 3
	drum_note 8, 1
	rest 3
	drum_note 8, 1
	rest 3
	drum_note 8, 1
	rest 1
	drum_note 8, 1
	rest 1
	drum_note 8, 1
	drum_note 8, 1
	drum_note 8, 1
	drum_note 8, 1
	drum_note 2, 1
	rest 3
	drum_note 2, 1
	rest 3
	drum_note 2, 1
	rest 3
	drum_note 2, 1
	rest 1
	drum_note 2, 1
	rest 1
	drum_note 2, 1
	drum_note 2, 1
	drum_note 2, 1
	drum_note 2, 1
	drum_note 4, 1
	drum_note 4, 1
	drum_note 2, 1
	rest 2
	drum_note 4, 1
	drum_speed 6
	drum_note 4, 1
	drum_note 4, 1
	drum_speed 12
	drum_note 1, 1
	rest 1
	drum_note 4, 1
	drum_note 4, 1
	drum_note 2, 1
	rest 1
	drum_note 4, 1
	drum_speed 6
	drum_note 4, 1
	drum_note 4, 1
	drum_speed 12
	drum_note 1, 1
	rest 1
	drum_note 4, 1
	drum_note 4, 1
	drum_note 2, 1
	rest 1
	drum_note 4, 1
	drum_speed 6
	drum_note 4, 1
	drum_note 4, 1
	drum_speed 12
	drum_note 1, 1
	rest 1
	drum_note 4, 1
	drum_note 4, 1
	drum_note 2, 1
	rest 1
	drum_note 4, 1
	drum_speed 6
	drum_note 4, 1
	drum_note 4, 1
	drum_speed 12
	drum_note 1, 1
	drum_note 4, 1
	drum_note 1, 1
	drum_note 4, 1
	drum_note 2, 1
	rest 1
	drum_note 4, 1
	rest 2
	drum_note 1, 1
	drum_note 4, 1
	drum_note 1, 1
	drum_note 4, 1
	drum_note 2, 1
	rest 1
	drum_note 4, 1
	drum_speed 6
	drum_note 4, 1
	drum_note 4, 1
	drum_speed 12
	octave 5
	drum_note 12, 1
	rest 1
	octave 6
	drum_note 4, 1
	drum_speed 6
	drum_note 4, 1
	drum_note 4, 1
	drum_speed 12
	octave 5
	drum_note 12, 1
	rest 1
	octave 6
	drum_note 4, 1
	drum_speed 6
	drum_note 4, 1
	drum_note 4, 1
	drum_speed 12
	octave 5
	drum_note 12, 1
	rest 1
	octave 6
	drum_note 4, 1
	drum_speed 6
	drum_note 4, 1
	drum_note 4, 1
	drum_speed 12
	octave 5
	drum_note 12, 1
	octave 6
	drum_note 6, 1
	drum_speed 6
	drum_note 4, 1
	drum_note 4, 1
	drum_note 4, 1
	drum_note 4, 1
	drum_speed 12
	octave 5
	drum_note 12, 1
	rest 1
	octave 6
	drum_note 4, 1
	drum_note 4, 1
	octave 5
	drum_note 12, 1
	rest 1
	octave 6
	drum_note 4, 1
	drum_note 4, 1
	octave 5
	drum_note 12, 1
	rest 1
	octave 6
	drum_note 4, 1
	drum_note 4, 1
	octave 5
	drum_note 12, 1
	octave 6
	drum_note 6, 1
	drum_note 4, 1
	drum_note 4, 1
	octave 5
	drum_note 12, 1
	rest 1
	octave 6
	drum_note 4, 1
	drum_note 4, 1
	octave 5
	drum_note 12, 1
	rest 1
	octave 6
	drum_note 4, 1
	drum_note 4, 1
	octave 5
	drum_note 12, 1
	octave 6
	drum_note 6, 1
	drum_note 4, 1
	drum_note 4, 1
	octave 5
	drum_note 12, 1
	rest 1
	octave 6
	drum_note 4, 1
	drum_note 4, 1
	octave 5
	drum_note 12, 1
	rest 1
	octave 6
	drum_note 4, 1
	drum_note 4, 1
	octave 5
	drum_note 12, 1
	rest 1
	octave 6
	drum_note 4, 1
	drum_note 4, 1
	octave 5
	drum_note 12, 1
	octave 6
	drum_note 6, 1
	drum_note 4, 1
	drum_note 4, 1
	octave 5
	drum_note 12, 1
	rest 1
	octave 6
	drum_note 4, 1
	drum_note 4, 1
	octave 5
	drum_note 12, 1
	rest 1
	octave 6
	drum_note 4, 1
	drum_note 4, 1
	octave 5
	drum_note 12, 1
	rest 1
	octave 6
	drum_note 4, 1
	drum_note 4, 1
	octave 5
	drum_note 12, 1
	octave 6
	drum_note 6, 1
	drum_note 4, 1
	drum_note 4, 1
	octave 5
	drum_note 12, 1
	octave 6
	drum_note 6, 1
	drum_note 4, 1
	drum_note 4, 1
	octave 5
	drum_note 12, 1
	rest 1
	octave 6
	drum_note 10, 1
	rest 1
	octave 5
	drum_note 12, 1
	rest 1
	octave 6
	drum_note 10, 1
	rest 1
	octave 5
	drum_note 12, 1
	rest 1
	octave 6
	drum_note 10, 1
	rest 1
	octave 5
	drum_note 12, 1
	rest 1
	octave 6
	drum_note 10, 1
	drum_note 10, 1
	octave 5
	drum_note 12, 1
	rest 1
	octave 6
	drum_note 10, 1
	rest 1
	octave 5
	drum_note 12, 1
	rest 1
	octave 6
	drum_note 10, 1
	rest 1
	octave 5
	drum_note 12, 1
	rest 1
	octave 6
	drum_note 10, 1
	octave 5
	drum_note 12, 1
	drum_note 12, 1
	octave 6
	drum_note 10, 1
	drum_note 10, 1
	drum_speed 6
	drum_note 10, 1
	drum_note 10, 1
	drum_speed 12
	octave 5
	drum_note 12, 1
	rest 1
	octave 6
	drum_note 10, 1
	rest 1
	octave 5
	drum_note 12, 1
	rest 1
	octave 6
	drum_note 10, 1
	rest 1
	octave 5
	drum_note 12, 1
	rest 1
	octave 6
	drum_note 10, 1
	rest 1
	octave 5
	drum_note 12, 1
	rest 1
	octave 6
	drum_note 10, 1
	drum_note 10, 1
	octave 5
	drum_note 12, 1
	rest 1
	octave 6
	drum_note 10, 1
	rest 1
	octave 5
	drum_note 12, 1
	rest 1
	octave 6
	drum_note 10, 1
	rest 1
	octave 5
	drum_note 12, 1
	rest 1
	octave 6
	drum_note 10, 1
	octave 5
	drum_note 12, 1
	drum_note 12, 1
	drum_note 12, 1
	octave 6
	drum_note 10, 1
	drum_speed 6
	drum_note 10, 1
	drum_note 10, 1
	drum_speed 12
	drum_note 10, 1
	rest 1
	drum_note 10, 1
	rest 1
	octave 5
	drum_note 12, 1
	rest 1
	octave 6
	drum_note 10, 1
	rest 1
	octave 5
	drum_note 12, 1
	rest 1
	octave 6
	drum_note 10, 1
	rest 1
	octave 5
	drum_note 12, 1
	rest 1
	octave 6
	drum_note 10, 1
	drum_note 10, 1
	octave 5
	drum_note 12, 1
	rest 1
	octave 6
	drum_note 10, 1
	rest 1
	octave 5
	drum_note 12, 1
	rest 1
	octave 6
	drum_note 10, 1
	rest 1
	octave 5
	drum_note 12, 1
	rest 1
	octave 6
	drum_note 10, 1
	octave 5
	drum_note 12, 1
	drum_note 12, 1
	rest 1
	octave 6
	drum_note 10, 1
	drum_speed 6
	drum_note 10, 1
	drum_note 10, 1
	drum_speed 12
	octave 5
	drum_note 12, 1
	rest 1
	octave 6
	drum_note 10, 1
	rest 1
	octave 5
	drum_note 12, 1
	rest 1
	octave 6
	drum_note 10, 1
	rest 1
	octave 5
	drum_note 12, 1
	rest 1
	octave 6
	drum_note 10, 1
	rest 1
	octave 5
	drum_note 12, 1
	rest 1
	octave 6
	drum_note 10, 1
	drum_note 10, 1
	octave 5
	drum_note 12, 1
	rest 1
	octave 6
	drum_note 10, 1
	rest 1
	octave 5
	drum_note 12, 1
	rest 1
	octave 6
	drum_note 10, 1
	rest 1
	octave 5
	drum_note 12, 1
	rest 1
	octave 6
	drum_note 10, 1
	octave 5
	drum_note 12, 1
	drum_note 12, 1
	rest 1
	octave 6
	drum_note 10, 1
	drum_speed 6
	drum_note 10, 1
	drum_note 10, 1
	drum_speed 12
	drum_note 1, 1
	rest 1
	drum_note 11, 1
	rest 1
	drum_note 1, 1
	rest 1
	drum_note 11, 1
	rest 1
	drum_note 1, 1
	rest 1
	drum_note 11, 1
	rest 1
	drum_note 1, 1
	rest 1
	drum_note 11, 1
	drum_note 11, 1
	drum_note 1, 1
	rest 1
	drum_note 11, 1
	rest 1
	drum_note 1, 1
	rest 1
	drum_note 11, 1
	rest 1
	drum_note 1, 1
	rest 1
	drum_note 11, 1
	drum_note 1, 1
	drum_note 1, 1
	rest 1
	drum_note 11, 1
	drum_speed 6
	drum_note 11, 1
	drum_note 11, 1
	drum_speed 12
	drum_note 1, 1
	rest 1
	drum_note 11, 1
	rest 1
	drum_note 1, 1
	rest 1
	drum_note 11, 1
	rest 1
	drum_note 1, 1
	rest 1
	drum_note 11, 1
	drum_note 1, 1
	drum_note 1, 1
	rest 1
	drum_note 11, 1
	drum_note 11, 1
	drum_note 1, 1
	rest 1
	drum_note 11, 1
	rest 1
	drum_note 1, 1
	rest 1
	drum_note 11, 1
	rest 1
	drum_note 1, 1
	rest 1
	drum_note 11, 1
	drum_note 1, 1
	drum_note 1, 1
	rest 1
	drum_note 1, 1
	drum_speed 6
	drum_note 1, 1
	drum_note 1, 1
	drum_speed 12
	drum_note 1, 1
	rest 1
	drum_note 11, 1
	rest 1
	drum_note 1, 1
	rest 1
	drum_note 11, 1
	rest 1
	drum_note 1, 1
	rest 1
	drum_note 11, 1
	rest 1
	drum_note 1, 1
	rest 1
	drum_note 11, 1
	drum_note 11, 1
	drum_note 1, 1
	rest 1
	drum_note 11, 1
	rest 1
	drum_note 1, 1
	rest 1
	drum_note 11, 1
	rest 1
	drum_note 1, 1
	rest 1
	drum_note 11, 1
	rest 1
	drum_note 1, 1
	rest 1
	drum_note 1, 1
	drum_speed 6
	drum_note 1, 1
	drum_note 1, 1
	drum_speed 12
	drum_note 1, 1
	rest 1
	drum_note 11, 1
	rest 1
	drum_note 1, 1
	rest 1
	drum_note 11, 1
	rest 1
	drum_note 1, 1
	rest 1
	drum_note 11, 1
	rest 1
	drum_note 1, 1
	rest 1
	drum_note 11, 1
	drum_note 11, 1
	drum_note 1, 1
	rest 1
	drum_note 11, 1
	rest 1
	drum_note 1, 1
	rest 1
	drum_note 11, 1
	rest 1
	drum_note 1, 1
	rest 1
	drum_note 11, 1
	rest 1
	drum_note 1, 1
	rest 1
	drum_note 1, 1
	drum_speed 6
	drum_note 1, 1
	drum_note 1, 1
	drum_speed 12
	drum_note 1, 1
	rest 1
	drum_note 11, 1
	rest 1
	drum_note 1, 1
	rest 1
	drum_note 11, 1
	rest 1
	drum_note 1, 1
	rest 1
	drum_note 11, 1
	rest 1
	drum_note 1, 1
	rest 1
	drum_note 11, 1
	drum_note 11, 1
	drum_note 1, 1
	rest 1
	drum_note 11, 1
	rest 1
	drum_note 1, 1
	rest 1
	drum_note 11, 1
	rest 1
	drum_note 1, 1
	rest 1
	drum_note 11, 1
	rest 1
	drum_note 1, 1
	rest 1
	drum_note 1, 1
	drum_speed 6
	drum_note 1, 1
	drum_note 1, 1
	drum_speed 12
	drum_note 1, 1
	rest 1
	drum_note 11, 1
	rest 1
	drum_note 1, 1
	rest 1
	drum_note 11, 1
	rest 1
	drum_note 1, 1
	rest 1
	drum_note 11, 1
	rest 1
	drum_note 1, 1
	rest 1
	drum_note 11, 1
	drum_note 11, 1
	drum_note 1, 1
	rest 1
	drum_note 11, 1
	rest 1
	drum_note 1, 1
	rest 1
	drum_note 11, 1
	rest 1
	drum_note 1, 1
	rest 1
	drum_note 11, 1
	rest 1
	drum_note 1, 1
	rest 1
	drum_note 1, 1
	drum_speed 6
	drum_note 1, 1
	drum_note 1, 1
	drum_speed 12
	drum_note 1, 1
	rest 1
	drum_note 11, 1
	rest 1
	drum_note 1, 1
	rest 1
	drum_note 11, 1
	rest 1
	drum_note 1, 1
	rest 1
	drum_note 11, 1
	rest 1
	drum_note 1, 1
	rest 1
	drum_note 11, 1
	drum_note 11, 1
	drum_note 1, 1
	rest 1
	drum_note 11, 1
	rest 1
	drum_note 1, 1
	rest 1
	drum_note 11, 1
	rest 1
	drum_note 1, 1
	rest 1
	drum_note 11, 1
	rest 1
	drum_note 1, 1
	rest 1
	drum_note 1, 1
	drum_speed 6
	drum_note 1, 1
	drum_note 1, 1
	drum_speed 12
	drum_note 1, 1
	rest 1
	drum_note 11, 1
	rest 1
	drum_note 1, 1
	rest 1
	drum_note 11, 1
	rest 1
	drum_note 1, 1
	rest 1
	drum_note 11, 1
	rest 1
	drum_note 1, 1
	rest 1
	drum_note 11, 1
	drum_note 11, 1
	drum_note 1, 1
	rest 1
	drum_note 11, 1
	rest 1
	drum_note 1, 1
	rest 1
	drum_note 11, 1
	drum_note 11, 1
	drum_note 1, 1
	rest 1
	drum_speed 6
	drum_note 1, 1
	drum_note 1, 1
	drum_note 1, 1
	drum_note 1, 1
	drum_speed 12
	drum_note 1, 1
	rest 1
	drum_speed 6
	drum_note 1, 1
	drum_note 1, 1
	drum_note 1, 1
	drum_note 1, 1
	drum_speed 12
	drum_note 1, 1
	octave 8
	rest 15
	sound_loop 0, .mainLoop
