Music_ChampRival:
	channel_count 3
	channel 1, Music_ChampRival_Ch1
	channel 2, Music_ChampRival_Ch2
	channel 3, Music_ChampRival_Ch3

Music_ChampRival_Ch1:
	tempo 170
Music_ChampRival_branch_b123:
	volume 7, 7
	duty_cycle 3
	vibrato 6, 3, 4
	toggle_perfect_pitch
	note_type 12, 11, 3
	octave 3
	note E_, 1
	note D#, 1
	note D_, 1
	note C#, 1
	note C_, 2
	octave 2
	note B_, 1
	note A#, 1
	note A_, 1
	note G#, 1
	note G_, 6
	note E_, 1
	rest 1
	note E_, 1
	rest 1
	note E_, 1
	rest 1
	note E_, 1
	rest 3
	note B_, 2
	note A_, 2
	note B_, 2
	octave 3
Music_ChampRival_branch_b140:
	octave 3
	note C#, 4
	note C_, 2
	octave 2
	note B_, 4
	note A_, 2
	octave 3
	note D_, 4
	note E_, 4
	rest 2
	note E_, 4
	note D#, 2
	note D_, 2
	note C#, 2
	note D_, 4
	note F#, 2
	note E_, 4
	note D_, 2
	note C#, 4
	note D_, 4
	rest 2
	note A_, 4
	note A_, 2
	note G#, 2
	note F#, 2
	note E_, 2
	note G#, 2
	octave 2
	note B_, 2
	octave 3
	note E_, 2
	note G#, 2
	octave 2
	note B_, 2
	octave 3
	note E_, 2
	octave 2
	note E_, 2
	octave 3
	note E_, 2
	rest 2
	octave 2
	note E_, 2
	octave 3
	note D_, 4
	note C#, 2
	note C_, 2
	note C#, 2
	note D_, 2
	note G_, 2
	octave 2
	note A_, 2
	octave 3
	note D_, 2
	note G_, 2
	note F_, 2
	note D_, 2
	note C_, 2
	octave 2
	note G#, 4
	rest 2
	octave 3
	note C_, 4
	note D_, 2
	note C_, 2
	note D_, 2
	note_type 12, 11, 7
	octave 2
	note A_, 4
	note E_, 2
	note G_, 6
	note G#, 4
	note E_, 2
	rest 4
	note E_, 4
	note_type 12, 11, 3
	note B_, 2
	note A_, 2
	note B_, 2
	octave 3
	sound_loop 0, Music_ChampRival_branch_b140

Music_ChampRival_Ch2:
	duty_cycle 3
	vibrato 10, 2, 6
	note_type 12, 12, 7
	octave 4
	note C#, 1
	note C_, 1
	octave 3
	note B_, 1
	note A#, 1
	note A_, 2
	note G#, 1
	note G_, 1
	note F#, 1
	note F_, 1
	note E_, 6
	octave 2
	note A_, 1
	rest 1
	note A_, 1
	rest 1
	note A_, 1
	rest 1
	note F#, 1
	rest 1
	note E_, 1
	rest 1
	octave 3
	note E_, 2
	note G_, 2
	note G#, 2
	octave 4
Music_ChampRival_branch_b1d8:
	note_type 12, 12, 7
	octave 3
	note A_, 4
	note E_, 2
	note G_, 6
	note G#, 4
	note A_, 4
	rest 2
	note A_, 4
	note A_, 2
	octave 4
	note C_, 2
	note C#, 2
	note D_, 4
	octave 3
	note A_, 2
	octave 4
	note C_, 6
	note C#, 4
	note D_, 4
	rest 2
	note D_, 4
	note D_, 2
	note C#, 2
	note D_, 2
	note_type 12, 11, 8
	note E_, 16
	note_type 12, 11, 5
	note E_, 6
	note_type 12, 12, 7
	note G_, 4
	note E_, 2
	note D_, 2
	note E_, 2
	note_type 12, 11, 8
	note D_, 8
	note_type 12, 12, 7
	note D_, 8
	octave 3
	note D_, 4
	rest 2
	octave 4
	note C_, 4
	octave 3
	note A_, 2
	note G_, 2
	note_type 12, 11, 8
	note A_, 16
	note_type 12, 11, 3
	note A_, 2
	octave 2
	note A_, 2
	rest 4
	note A_, 4
	octave 3
	note E_, 2
	note G_, 2
	note G#, 2
	octave 4
	sound_loop 0, Music_ChampRival_branch_b1d8

Music_ChampRival_Ch3:
	note_type 12, 1, 4
	octave 4
	note E_, 2
	rest 2
	note D#, 2
	rest 2
	note D_, 2
	rest 2
	note C#, 2
	octave 3
	rest 2
	note A_, 1
	rest 1
	note A_, 1
	rest 1
	note A_, 1
	rest 1
	note A_, 1
	rest 1
	note A_, 1
	rest 1
	note A_, 1
	rest 1
	note A_, 1
	rest 1
	note A_, 1
	octave 4
	rest 1
Music_ChampRival_branch_b24b:
	octave 3
	note A_, 2
	octave 4
	note E_, 2
	octave 3
	note A_, 2
	rest 2
	octave 4
	note E_, 2
	octave 3
	note A_, 2
	rest 2
	octave 4
	note E_, 2
	octave 3
	note A_, 2
	rest 4
	octave 4
	note E_, 4
	octave 3
	note A_, 2
	octave 4
	note C_, 2
	note C#, 2
	octave 3
	note A_, 2
	octave 4
	note D_, 2
	octave 3
	note A_, 2
	rest 2
	octave 4
	note D_, 2
	octave 3
	note A_, 2
	rest 2
	octave 4
	note C#, 2
	note D_, 4
	rest 2
	note D_, 4
	note D_, 2
	note C#, 2
	octave 3
	note B_, 2
	note G#, 2
	note B_, 2
	rest 2
	note G#, 2
	note B_, 2
	note G#, 2
	rest 2
	note B_, 2
	note G#, 2
	note B_, 2
	rest 2
	note G#, 2
	note B_, 2
	note G#, 2
	octave 4
	note E_, 2
	octave 3
	note B_, 2
	note F#, 2
	octave 4
	note D_, 2
	rest 2
	octave 3
	note F#, 2
	octave 4
	note D_, 2
	octave 3
	note F#, 2
	note G_, 2
	note A_, 2
	note F#, 4
	rest 2
	note F#, 2
	octave 4
	note D_, 2
	note C#, 2
	note C_, 2
	octave 3
	note B_, 2
	note A_, 2
	octave 4
	note C_, 2
	octave 3
	rest 2
	note A_, 2
	octave 4
	note C_, 2
	octave 3
	note A_, 2
	rest 2
	octave 4
	note C_, 2
	octave 3
	note A_, 2
	octave 4
	note E_, 2
	octave 3
	note A_, 2
	rest 2
	octave 4
	note E_, 2
	octave 3
	note A_, 2
	rest 2
	octave 4
	note E_, 2
	octave 5
	sound_loop 0, Music_ChampRival_branch_b24b
