; "But isn't this just a pitched down Gym-" Yes. Diamond and Pearl did the same thing, shut up.

Music_EliteFourBattle:
	channel_count 3
	channel 1, Music_EliteFourBattle_Ch1
	channel 2, Music_EliteFourBattle_Ch2
	channel 3, Music_EliteFourBattle_Ch3

Music_EliteFourBattle_Ch1:
	tempo 104
	volume 7, 7
	duty_cycle 3
	vibrato 8, 3, 4
	toggle_perfect_pitch
	note_type 12, 11, 3
	rest 6
	octave 3
	note E_, 1
	note D#, 1
	note D_, 1
	note D#, 1
	note D_, 1
	note C#, 1
	note D_, 1
	note C#, 1
	note C_, 1
	note C#, 1
	note C_, 1
	octave 2
	note B_, 1
	octave 3
	note C_, 1
	octave 2
	note B_, 1
	note A#, 1
	note B_, 1
	note A#, 1
	note A_, 1
	octave 1
	note F#, 1
	note G_, 1
	note G#, 1
	note G_, 1
	note G#, 1
	note A_, 1
	note G#, 1
	note A_, 1
	octave 2
	note E_, 1
	rest 15
	note E_, 1
	rest 9
	note F_, 6
	note E_, 1
	rest 15
	note E_, 1
	rest 9
	note D#, 6
	note E_, 1
	rest 15
	note E_, 1
	rest 9
	note F_, 6
	note E_, 1
	rest 15
	note E_, 1
	rest 9
	note G_, 6
Music_EliteFourBattle_branch_223b0:
	note E_, 1
	octave 2
	note B_, 1
	octave 3
	note E_, 1
	note D_, 1
	octave 2
	note B_, 1
	octave 3
	note E_, 1
	note D_, 1
	octave 2
	note B_, 1
	octave 3
	note E_, 1
	note D_, 1
	octave 2
	note B_, 1
	octave 3
	note E_, 1
	note D_, 1
	octave 2
	note B_, 1
	octave 3
	note E_, 1
	note D_, 1
	octave 2
	note B_, 1
	octave 3
	note E_, 1
	note D_, 1
	octave 2
	note B_, 1
	octave 3
	note E_, 1
	note D_, 1
	octave 2
	note B_, 1
	octave 3
	note E_, 1
	note D_, 1
	octave 2
	note B_, 1
	octave 3
	note E_, 1
	note D_, 1
	octave 2
	note B_, 1
	octave 3
	note E_, 1
	note D_, 1
	octave 2
	note B_, 1
	note D_, 1
	note G_, 1
	note B_, 1
	note A_, 1
	note G_, 1
	note B_, 1
	note A_, 1
	note G_, 1
	note B_, 1
	note A_, 1
	note G_, 1
	note B_, 1
	note A_, 1
	note G_, 1
	note B_, 1
	note A_, 1
	note G_, 1
	note B_, 1
	note A_, 1
	note G_, 1
	note B_, 1
	note A_, 1
	note G_, 1
	note B_, 1
	note A_, 1
	note G_, 1
	note B_, 1
	note A_, 1
	note G_, 1
	note B_, 1
	note A_, 1
	note G_, 1
	note E_, 1
	note B_, 1
	octave 3
	note E_, 1
	note D_, 1
	octave 2
	note B_, 1
	octave 3
	note E_, 1
	note D_, 1
	octave 2
	note B_, 1
	octave 3
	note E_, 1
	note D_, 1
	octave 2
	note B_, 1
	octave 3
	note E_, 1
	note D_, 1
	octave 2
	note B_, 1
	octave 3
	note E_, 1
	note D_, 1
	octave 2
	note B_, 1
	octave 3
	note E_, 1
	note D_, 1
	octave 2
	note B_, 1
	octave 3
	note E_, 1
	note D_, 1
	octave 2
	note B_, 1
	octave 3
	note E_, 1
	note D_, 1
	octave 2
	note B_, 1
	octave 3
	note E_, 1
	note D_, 1
	octave 2
	note B_, 1
	octave 3
	note E_, 1
	note D_, 1
	octave 2
	note B_, 1
	note D_, 1
	note G_, 1
	note B_, 1
	note A_, 1
	note G_, 1
	note B_, 1
	note A_, 1
	note G_, 1
	note B_, 1
	note A_, 1
	note G_, 1
	note B_, 1
	note A_, 1
	note G_, 1
	note B_, 1
	note A_, 1
	note G_, 1
	note B_, 1
	note A_, 1
	note G_, 1
	note B_, 1
	note A_, 1
	note G_, 1
	note B_, 1
	note A_, 1
	note G_, 1
	note B_, 1
	note A_, 1
	note G_, 1
	note B_, 1
	note A_, 1
	note G_, 1
	rest 2
	octave 1
	note A_, 1
	rest 1
	octave 2
	note C_, 4
	octave 1
	note A_, 1
	rest 1
	note A_, 1
	rest 1
	octave 2
	note D_, 4
	octave 1
	note A_, 1
	rest 1
	note A_, 1
	rest 1
	octave 2
	note C_, 4
	octave 1
	note A_, 1
	rest 1
	note B_, 2
	note A_, 1
	rest 1
	note A_, 1
	rest 1
	octave 2
	note C_, 4
	octave 1
	note A_, 1
	rest 1
	note A_, 1
	rest 1
	octave 2
	note D_, 4
	octave 1
	note A_, 1
	rest 1
	note A_, 1
	rest 1
	octave 2
	note C_, 4
	octave 1
	note A_, 1
	rest 1
	note A_, 1
	rest 1
	note B_, 2
	note A_, 2
	note G_, 2
	note B_, 2
	note A_, 1
	rest 1
	note A_, 1
	rest 1
	octave 2
	note A#, 1
	note A_, 1
	note G_, 1
	note A_, 1
	note A#, 1
	note A_, 1
	note G_, 1
	note A_, 1
	note A#, 1
	note A_, 1
	note G_, 1
	note A_, 1
	note A#, 1
	note A_, 1
	note G_, 1
	note A_, 1
	note A#, 1
	note A_, 1
	note G_, 1
	note A_, 1
	note A#, 1
	note A_, 1
	note G_, 1
	note A_, 1
	note A#, 1
	note A_, 1
	note G_, 1
	note A_, 1
	note A#, 1
	note A_, 1
	note G_, 1
	note A_, 1
	note A#, 1
	note A_, 1
	note G_, 1
	note A_, 1
	note A#, 1
	note A_, 1
	note G_, 1
	note A_, 1
	note A#, 1
	note A_, 1
	note G_, 1
	note A_, 1
	rest 16
	octave 1
	note A_, 1
	rest 1
	note A_, 1
	rest 1
	octave 2
	note A#, 1
	note A_, 1
	note G_, 1
	note A_, 1
	note A#, 1
	note A_, 1
	note G_, 1
	note A_, 1
	note A#, 1
	note A_, 1
	note G_, 1
	note A_, 1
	note A#, 1
	note A_, 1
	note G_, 1
	note A_, 1
	note A#, 1
	note A_, 1
	note G_, 1
	note A_, 1
	note A#, 1
	note A_, 1
	note G_, 1
	note A_, 1
	note A#, 1
	note A_, 1
	note G_, 1
	note A_, 1
	note A#, 1
	note A_, 1
	note G_, 1
	note A_, 1
	note A#, 1
	note A_, 1
	note G_, 1
	note A_, 1
	note A#, 1
	note A_, 1
	note G_, 1
	note A_, 1
	note A#, 1
	note A_, 1
	note G_, 1
	note A_, 1
	note A#, 1
	note A_, 1
	note G_, 1
	note A_, 1
	note A#, 1
	note A_, 1
	note G_, 1
	note A_, 1
	note A#, 1
	note A_, 1
	note G_, 1
	note A_, 1
	note A#, 1
	note A_, 1
	note G_, 1
	note A_, 1
	octave 1
	note G_, 1
	rest 1
	note G_, 1
	rest 1
	note_type 12, 11, 5
	octave 2
	note B_, 12
	note_type 12, 11, 3
	octave 1
	note G_, 1
	rest 1
	note G_, 1
	rest 1
	note_type 12, 11, 5
	octave 3
	note G_, 12
	note_type 12, 11, 3
	note C#, 4
	octave 2
	note B_, 4
	octave 3
	note C#, 4
	note D_, 2
	note E_, 4
	octave 2
	note A_, 2
	note B_, 2
	octave 3
	note E_, 2
	note A_, 2
	note E_, 2
	note C#, 2
	note E_, 2
	octave 1
	note G_, 1
	rest 1
	note G_, 1
	rest 1
	note_type 12, 11, 5
	octave 3
	note G_, 12
	note_type 12, 11, 3
	octave 2
	note B_, 1
	note A_, 1
	note B_, 1
	octave 3
	note C#, 1
	note D_, 1
	note C#, 1
	note D_, 1
	note E_, 1
	note G_, 1
	note F#, 1
	note E_, 1
	note D_, 1
	note E_, 1
	note D_, 1
	note C#, 1
	octave 2
	note B_, 1
	octave 3
	note_type 12, 11, 5
	note C#, 4
	note D_, 4
	octave 2
	note B_, 2
	octave 3
	note C#, 6
	note E_, 4
	note D_, 2
	note C#, 4
	octave 2
	note B_, 6
	octave 3
	rest 16
	rest 10
	note D_, 6
	note C#, 4
	note D_, 4
	octave 2
	note B_, 2
	octave 3
	note C#, 6
	note D_, 4
	note C#, 2
	octave 2
	note B_, 4
	note A_, 6
	octave 3
	note C#, 4
	note D_, 4
	octave 2
	note B_, 2
	octave 3
	note C#, 6
	note E_, 4
	note G_, 2
	note F#, 4
	note D_, 6
	sound_loop 0, Music_EliteFourBattle_branch_223b0

Music_EliteFourBattle_Ch2:
	duty_cycle 3
	vibrato 8, 2, 5
	note_type 12, 12, 3
	octave 4
	note D#, 1
	note D_, 1
	note C#, 1
	note D_, 1
	note C#, 1
	note C_, 1
	note C#, 1
	note C_, 1
	octave 3
	note B_, 1
	octave 4
	note C_, 1
	octave 3
	note B_, 1
	note A#, 1
	note A_, 1
	rest 5
	note E_, 1
	note D#, 1
	note D_, 1
	note D#, 1
	note D_, 1
	note C#, 1
	note D_, 1
	note C#, 1
	note C_, 1
	note C#, 1
	note C_, 1
	octave 2
	note B_, 1
	octave 3
	note C_, 1
	octave 2
	note B_, 1
	octave 3
	note A_, 1
	rest 15
	note A_, 1
	rest 9
	note A#, 6
	note A_, 1
	rest 15
	note A_, 1
	rest 9
	note G#, 6
	note A_, 1
	rest 15
	note A_, 1
	rest 9
	note A#, 6
	note A_, 1
	rest 15
	note A_, 1
	rest 9
	note B_, 6
	octave 4
Music_EliteFourBattle_branch_225e0:
	note_type 12, 12, 5
	note C#, 4
	octave 3
	note B_, 4
	octave 4
	note C#, 4
	note D_, 2
	note E_, 4
	note D_, 4
	note C#, 2
	octave 3
	note B_, 2
	note A_, 2
	note B_, 2
	octave 4
	note C#, 2
	note_type 12, 11, 7
	duty_cycle 2
	octave 3
	note G_, 8
	note B_, 8
	octave 4
	note D_, 8
	octave 3
	note B_, 8
	octave 4
	note_type 12, 12, 5
	duty_cycle 3
	note C#, 4
	octave 3
	note B_, 4
	octave 4
	note C#, 4
	note D_, 2
	note E_, 4
	note D_, 4
	note C#, 2
	octave 3
	note B_, 2
	note A_, 2
	note B_, 2
	octave 4
	note C#, 2
	note_type 12, 11, 7
	duty_cycle 2
	octave 3
	note B_, 8
	note A_, 8
	note G_, 8
	note_type 12, 12, 3
	octave 4
	note D_, 4
	note D_, 2
	octave 3
	note B_, 2
	note_type 12, 12, 5
	duty_cycle 3
	octave 1
	note A_, 1
	rest 3
	octave 3
	note C_, 1
	octave 2
	note B_, 1
	note A_, 1
	octave 3
	note C_, 1
	rest 4
	note D_, 1
	note C_, 1
	octave 2
	note A_, 1
	octave 3
	note D_, 1
	rest 4
	note E_, 1
	note D_, 1
	octave 2
	note B_, 1
	octave 3
	note E_, 1
	rest 2
	note D_, 1
	octave 2
	note B_, 1
	octave 3
	note D_, 1
	rest 1
	note D#, 1
	rest 1
	note C_, 1
	octave 2
	note B_, 1
	note A_, 1
	octave 3
	note C_, 1
	rest 4
	note D_, 1
	note C_, 1
	octave 2
	note A_, 1
	octave 3
	note D_, 1
	rest 4
	note E_, 1
	note D_, 1
	octave 2
	note B_, 1
	octave 3
	note E_, 1
	note D_, 1
	rest 1
	octave 2
	note B_, 1
	octave 3
	rest 1
	note C_, 1
	rest 1
	octave 2
	note B_, 1
	octave 3
	rest 1
	note E_, 1
	rest 1
	note D_, 1
	rest 1
	octave 1
	note A_, 1
	rest 1
	note A_, 1
	rest 1
	note_type 12, 11, 8
	octave 3
	note A_, 4
	note A#, 4
	note G_, 4
	note A_, 4
	note A#, 4
	note G_, 4
	note F_, 4
	note E_, 8
	note_type 12, 11, 7
	note E_, 8
	note_type 12, 12, 3
	octave 2
	note A#, 1
	note B_, 1
	octave 3
	note C_, 1
	note C#, 1
	note D_, 1
	note C#, 1
	note C_, 1
	octave 2
	note B_, 1
	note A#, 1
	note A_, 1
	note G_, 1
	note F_, 1
	note E_, 1
	note D#, 1
	note D_, 1
	note D#, 1
	note E_, 1
	note F_, 1
	note G_, 1
	note A_, 1
	note_type 12, 11, 8
	octave 3
	note A_, 4
	note A#, 4
	note G_, 4
	note A_, 4
	note A#, 4
	note G_, 4
	note A#, 4
	note A_, 16
	note_type 12, 3, -7
	octave 4
	note E_, 16
	note_type 12, 12, 3
	octave 1
	note G_, 1
	rest 1
	note G_, 1
	rest 1
	note_type 12, 12, 7
	octave 3
	note G_, 12
	note_type 12, 12, 3
	octave 1
	note G_, 1
	rest 1
	note G_, 1
	rest 1
	note_type 12, 12, 7
	octave 3
	note B_, 12
	octave 4
	note_type 12, 11, 8
	note C#, 16
	note_type 12, 11, 7
	note C#, 16
	note_type 12, 12, 3
	octave 1
	note G_, 1
	rest 1
	note G_, 1
	rest 1
	note_type 12, 12, 7
	octave 3
	note B_, 12
	octave 4
	note_type 12, 12, 8
	note G_, 8
	note D_, 8
	note A_, 16
	note_type 12, 12, 7
	note A_, 16
	note_type 12, 12, 4
	octave 3
	note C#, 4
	note D_, 4
	octave 2
	note B_, 2
	octave 3
	note C#, 6
	note E_, 4
	note G_, 2
	note F#, 4
	rest 2
	note A_, 1
	octave 4
	note C#, 1
	note E_, 1
	note G#, 1
	note_type 12, 12, 8
	note A_, 16
	note E_, 16
	note G_, 16
	note B_, 8
	rest 2
	note_type 12, 12, 3
	note G_, 6
	sound_loop 0, Music_EliteFourBattle_branch_225e0

Music_EliteFourBattle_Ch3:
	vibrato 0, 2, 0
	note_type 12, 1, 3
	rest 12
	octave 3
	note A_, 1
	note A#, 1
	note B_, 1
	note A#, 1
	note B_, 1
	octave 4
	note C_, 1
	octave 3
	note B_, 1
	octave 4
	note C_, 1
	note C#, 1
	note C_, 1
	note C#, 1
	note D_, 1
	note C#, 1
	note D_, 1
	note D#, 1
	note D_, 1
	note D#, 1
	note E_, 1
	note D#, 1
	note E_, 1
	octave 3
	note A_, 1
	rest 1
	octave 4
	note E_, 1
	rest 1
	octave 3
	note A_, 1
	rest 1
	octave 4
	note E_, 1
	rest 1
	octave 3
	note A_, 1
	rest 1
	octave 4
	note E_, 1
	rest 1
	octave 3
	note A_, 1
	rest 1
	octave 4
	note E_, 1
	rest 1
	octave 3
	note A_, 1
	rest 1
	octave 4
	note E_, 1
	rest 1
	octave 3
	note A_, 1
	rest 1
	octave 4
	note E_, 1
	rest 1
	octave 3
	note A_, 1
	rest 1
	note A#, 6
	note A_, 1
	rest 1
	octave 4
	note E_, 1
	rest 1
	octave 3
	note A_, 1
	rest 1
	octave 4
	note E_, 1
	rest 1
	octave 3
	note A_, 1
	rest 1
	octave 4
	note E_, 1
	rest 1
	octave 3
	note A_, 1
	rest 1
	octave 4
	note E_, 1
	rest 1
	octave 3
	note A_, 1
	rest 1
	octave 4
	note E_, 1
	rest 1
	octave 3
	note A_, 1
	rest 1
	octave 4
	note E_, 1
	rest 1
	octave 3
	note A_, 1
	rest 1
	octave 4
	note D#, 6
	octave 3
	note A_, 1
	rest 1
	octave 4
	note E_, 1
	rest 1
	octave 3
	note A_, 1
	rest 1
	octave 4
	note E_, 1
	rest 1
	octave 3
	note A_, 1
	rest 1
	octave 4
	note E_, 1
	rest 1
	octave 3
	note A_, 1
	rest 1
	octave 4
	note E_, 1
	rest 1
	octave 3
	note A_, 1
	rest 1
	octave 4
	note E_, 1
	rest 1
	octave 3
	note A_, 1
	rest 1
	octave 4
	note E_, 1
	rest 1
	octave 3
	note A_, 1
	rest 1
	note A#, 6
	note A_, 1
	rest 1
	octave 4
	note E_, 1
	rest 1
	octave 3
	note A_, 1
	rest 1
	octave 4
	note E_, 1
	rest 1
	octave 3
	note A_, 1
	rest 1
	octave 4
	note E_, 1
	rest 1
	octave 3
	note A_, 1
	rest 1
	octave 4
	note E_, 1
	rest 1
	octave 3
	note A_, 1
	rest 1
	octave 4
	note E_, 1
	rest 1
	octave 3
	note A_, 1
	rest 1
	octave 4
	note E_, 1
	rest 1
	octave 3
	note A_, 1
	rest 1
	note B_, 6
	octave 4
	note_type 12, 1, 4
Music_EliteFourBattle_branch_227b1:
	octave 3
	note A_, 2
	octave 4
	note E_, 2
	octave 3
	note A_, 2
	octave 4
	note E_, 2
	octave 3
	note A_, 2
	octave 4
	note E_, 2
	octave 3
	note A_, 2
	octave 4
	note E_, 2
	octave 3
	note A_, 2
	octave 4
	note E_, 2
	octave 3
	note A_, 2
	octave 4
	note E_, 2
	octave 3
	note A_, 2
	octave 4
	note E_, 2
	octave 3
	note A_, 2
	octave 4
	note E_, 2
	octave 3
	note G_, 2
	octave 4
	note D_, 2
	octave 3
	note G_, 2
	octave 4
	note D_, 2
	octave 3
	note G_, 2
	octave 4
	note D_, 2
	octave 3
	note G_, 2
	octave 4
	note D_, 2
	octave 3
	note G_, 2
	octave 4
	note D_, 2
	octave 3
	note G_, 2
	octave 4
	note D_, 2
	octave 3
	note G_, 2
	octave 4
	note D_, 2
	octave 3
	note G_, 2
	octave 4
	note D_, 2
	octave 3
	note A_, 2
	octave 4
	note E_, 2
	octave 3
	note A_, 2
	octave 4
	note E_, 2
	octave 3
	note A_, 2
	octave 4
	note E_, 2
	octave 3
	note A_, 2
	octave 4
	note E_, 2
	octave 3
	note A_, 2
	octave 4
	note E_, 2
	octave 3
	note A_, 2
	octave 4
	note E_, 2
	octave 3
	note A_, 2
	octave 4
	note E_, 2
	octave 3
	note A_, 2
	octave 4
	note E_, 2
	octave 3
	note G_, 2
	octave 4
	note D_, 2
	octave 3
	note G_, 2
	octave 4
	note D_, 2
	octave 3
	note G_, 2
	octave 4
	note D_, 2
	octave 3
	note G_, 2
	octave 4
	note D_, 2
	octave 3
	note G_, 2
	octave 4
	note D_, 2
	octave 3
	note G_, 2
	octave 4
	note D_, 2
	octave 3
	note G_, 2
	octave 4
	note D_, 2
	octave 3
	note G_, 2
	octave 4
	note D_, 2
	octave 3
	note A_, 1
	rest 1
	note A_, 1
	rest 1
	octave 4
	note C_, 4
	octave 3
	note A_, 1
	rest 1
	note A_, 1
	rest 1
	octave 4
	note D_, 4
	octave 3
	note A_, 1
	rest 1
	note A_, 1
	rest 1
	octave 4
	note C_, 4
	octave 3
	note A_, 1
	rest 1
	note B_, 2
	note A_, 1
	rest 1
	note A_, 1
	rest 1
	octave 4
	note C_, 4
	octave 3
	note A_, 1
	rest 1
	note A_, 1
	rest 1
	octave 4
	note D_, 4
	octave 3
	note A_, 1
	rest 1
	note A_, 1
	rest 1
	octave 4
	note C_, 4
	octave 3
	note A_, 1
	rest 1
	note A_, 1
	rest 1
	note B_, 2
	note A_, 2
	note G_, 2
	note B_, 2
	note A_, 1
	rest 1
	note A_, 1
	rest 13
	note A_, 1
	rest 1
	note A_, 1
	rest 13
	note A_, 1
	rest 1
	note A_, 1
	rest 13
	note A_, 1
	rest 1
	note A_, 1
	rest 13
	note A_, 1
	rest 1
	note A_, 1
	rest 13
	note A_, 1
	rest 1
	note A_, 1
	rest 13
	note A_, 1
	rest 1
	note A_, 1
	rest 13
	note A_, 1
	rest 1
	note A_, 1
	rest 13
	note G_, 1
	rest 1
	note G_, 1
	rest 1
	note B_, 12
	note G_, 1
	rest 1
	note G_, 1
	rest 1
	octave 4
	note D_, 12
	note C#, 16
	octave 3
	note A_, 16
	note G_, 1
	rest 1
	note G_, 1
	rest 1
	octave 4
	note D_, 12
	octave 3
	note B_, 8
	octave 4
	note D_, 8
	octave 3
	note A_, 2
	octave 4
	note E_, 2
	octave 3
	note A_, 2
	octave 4
	note E_, 2
	octave 3
	note A_, 2
	octave 4
	note E_, 2
	octave 3
	note A_, 2
	octave 4
	note E_, 2
	octave 3
	note A_, 2
	octave 4
	note E_, 2
	octave 3
	note A_, 2
	octave 4
	note E_, 2
	octave 3
	note A_, 2
	octave 4
	note D_, 6
	octave 3
	note A_, 2
	octave 4
	note E_, 2
	octave 3
	note A_, 2
	octave 4
	note E_, 2
	octave 3
	note A_, 2
	octave 4
	note E_, 2
	octave 3
	note A_, 2
	octave 4
	note E_, 2
	octave 3
	note A_, 2
	octave 4
	note E_, 2
	octave 3
	note A_, 2
	octave 4
	note E_, 2
	octave 3
	note A_, 2
	octave 4
	note F_, 6
	octave 3
	note A_, 2
	octave 4
	note E_, 2
	octave 3
	note A_, 2
	octave 4
	note E_, 2
	octave 3
	note A_, 2
	octave 4
	note E_, 2
	octave 3
	note A_, 2
	octave 4
	note E_, 2
	octave 3
	note A_, 2
	octave 4
	note E_, 2
	octave 3
	note A_, 2
	octave 4
	note E_, 2
	octave 3
	note A_, 2
	note A#, 6
	note A_, 2
	octave 4
	note E_, 2
	octave 3
	note A_, 2
	octave 4
	note E_, 2
	octave 3
	note A_, 2
	octave 4
	note E_, 2
	octave 3
	note A_, 2
	octave 4
	note E_, 2
	octave 3
	note A_, 2
	octave 4
	note E_, 2
	octave 3
	note A_, 2
	octave 4
	note E_, 2
	octave 3
	note A_, 2
	octave 4
	note F_, 6
	sound_loop 0, Music_EliteFourBattle_branch_227b1
