Music_GalarBirds:
	channel_count 4
	channel 1, Music_GalarBirds_Ch1
	channel 2, Music_GalarBirds_Ch2
	channel 3, Music_GalarBirds_Ch3
	channel 4, Music_GalarBirds_Ch4

Music_GalarBirds_Ch1:
	tempo 256
	volume 7, 7
	note_type 12, 15, 8
.mainLoop:
	tempo 110
	note_type 6, 15, 8
	octave 5
	vibrato 0, 0, 1
	duty_cycle 2
	note C#, 1
	rest 1
	octave 4
	note A#, 1
	rest 1
	note F_, 1
	rest 1
	note A#, 1
	rest 1
	octave 5
	volume_envelope 14, 8
	note C#, 1
	rest 1
	octave 4
	note A#, 1
	rest 1
	note F_, 1
	rest 1
	note A#, 1
	rest 1
	octave 5
	volume_envelope 13, 8
	note C#, 1
	rest 1
	octave 4
	note A#, 1
	rest 1
	note F_, 1
	rest 1
	note A#, 1
	rest 1
	octave 5
	volume_envelope 12, 8
	note C#, 1
	rest 1
	octave 4
	note A#, 1
	rest 1
	note F_, 1
	rest 1
	note A#, 1
	rest 1
	octave 5
	volume_envelope 11, 8
	note C#, 1
	rest 1
	octave 4
	note A#, 1
	rest 1
	note F_, 1
	rest 1
	note A#, 1
	rest 1
	octave 5
	volume_envelope 10, 8
	note C#, 1
	rest 1
	octave 4
	note A#, 1
	rest 1
	note F_, 1
	rest 1
	note A#, 1
	rest 1
	octave 5
	volume_envelope 9, 8
	note C#, 1
	rest 1
	octave 4
	note A#, 1
	rest 1
	note F_, 1
	rest 1
	note A#, 1
	rest 1
	octave 5
	volume_envelope 8, 8
	note C#, 1
	rest 1
	octave 4
	note A#, 1
	rest 1
	note F_, 1
	rest 1
	note A#, 1
	rest 1
	octave 5
	volume_envelope 7, 8
	note C#, 1
	rest 1
	octave 4
	note A#, 1
	rest 1
	note F_, 1
	rest 1
	note A#, 1
	rest 1
	octave 5
	volume_envelope 6, 8
	note C#, 1
	rest 1
	octave 4
	note A#, 1
	rest 1
	note F_, 1
	rest 1
	note A#, 1
	rest 1
	octave 5
	volume_envelope 5, 8
	note C#, 1
	rest 1
	octave 4
	note A#, 1
	rest 1
	note F_, 1
	rest 1
	note A#, 1
	rest 1
	octave 5
	volume_envelope 4, 8
	note C#, 1
	rest 1
	octave 4
	note A#, 1
	rest 1
	note F_, 1
	rest 1
	note A#, 1
	rest 1
	note_type 12, 10, 8
	note D_, 2
	rest 4
	octave 3
	note B_, 2
	rest 2
	octave 4
	note D_, 2
	rest 2
	octave 3
	note D_, 2
	rest 8
	octave 4
	volume_envelope 5, 8
	note A#, 1
	octave 5
	volume_envelope 6, 8
	note D#, 1
	volume_envelope 7, 8
	note F_, 1
	volume_envelope 8, 8
	note D#, 1
	volume_envelope 9, 8
	note F_, 1
	volume_envelope 10, 8
	note A#, 1
	octave 6
	note C_, 1
	octave 5
	note A#, 1
	note A#, 1
	octave 6
	note C_, 1
	octave 5
	volume_envelope 9, 8
	note A#, 1
	volume_envelope 8, 8
	note F_, 1
	volume_envelope 7, 8
	note F_, 1
	volume_envelope 6, 8
	note A#, 1
	volume_envelope 5, 8
	note F_, 1
	volume_envelope 4, 8
	note C_, 2
	volume_envelope 3, 8
	note F_, 1
	note C_, 1
	octave 4
	volume_envelope 2, 8
	note A#, 1
	note F_, 1
	volume_envelope 1, 8
	note C_, 1
	octave 3
	note A#, 1
	note F_, 1
	note C#, 1
	octave 2
	note A#, 1
	octave 3
	note C#, 1
	note D#, 1
	volume_envelope 2, 8
	note F_, 1
	note A#, 1
	octave 4
	volume_envelope 3, 8
	note C_, 1
	octave 3
	volume_envelope 4, 8
	note A#, 1
	octave 4
	volume_envelope 5, 8
	note C#, 1
	volume_envelope 6, 8
	note F_, 1
	volume_envelope 7, 8
	note F#, 1
	volume_envelope 8, 8
	note F_, 1
	volume_envelope 9, 8
	note A#, 1
	octave 5
	volume_envelope 10, 8
	note C_, 1
	note D#, 1
	note F_, 1
	note F#, 1
	note G#, 1
	note F#, 1
	volume_envelope 9, 8
	note C#, 1
	volume_envelope 8, 8
	note C#, 1
	volume_envelope 7, 8
	note F#, 1
	volume_envelope 6, 8
	note C#, 1
	octave 4
	volume_envelope 5, 8
	note F#, 1
	volume_envelope 4, 8
	note C#, 1
	volume_envelope 3, 8
	note G#, 1
	note F#, 1
	volume_envelope 2, 8
	note C#, 1
	note C#, 1
	volume_envelope 1, 8
	note F#, 1
	note C#, 1
	octave 3
	note F#, 1
	octave 5
.loop1:
	rest 4
	octave 3
	volume_envelope 1, 8
	vibrato 0, 0, 1
	duty_cycle 2
	note F_, 1
	volume_envelope 2, 8
	note A#, 1
	octave 4
	volume_envelope 3, 8
	note C_, 1
	octave 3
	volume_envelope 4, 8
	note A#, 1
	octave 4
	volume_envelope 5, 8
	note F_, 1
	volume_envelope 6, 8
	note A#, 1
	octave 5
	volume_envelope 7, 8
	note C_, 1
	octave 4
	volume_envelope 8, 8
	note A#, 1
	octave 5
	volume_envelope 9, 8
	note F_, 1
	volume_envelope 10, 8
	note A#, 1
	octave 6
	note C_, 1
	octave 5
	note A#, 1
	octave 6
	note C_, 1
	octave 5
	note A#, 1
	volume_envelope 9, 8
	note F_, 1
	octave 4
	volume_envelope 8, 8
	note A#, 1
	volume_envelope 7, 8
	note F_, 1
	volume_envelope 6, 8
	note A#, 1
	volume_envelope 5, 8
	note F_, 1
	octave 3
	volume_envelope 4, 8
	note A#, 1
	octave 4
	note C_, 1
	note F_, 1
	volume_envelope 3, 8
	note C_, 1
	octave 3
	note A#, 1
	volume_envelope 2, 8
	note F_, 1
	note A#, 1
	note F_, 1
	octave 2
	volume_envelope 1, 8
	note A#, 1
	rest 4
	octave 3
	note F_, 1
	volume_envelope 2, 8
	note A#, 1
	octave 4
	volume_envelope 3, 8
	note C_, 1
	octave 3
	volume_envelope 4, 8
	note A#, 1
	octave 4
	volume_envelope 5, 8
	note C#, 1
	volume_envelope 6, 8
	note F_, 1
	volume_envelope 7, 8
	note F#, 1
	volume_envelope 8, 8
	note F_, 1
	volume_envelope 9, 8
	note A#, 1
	octave 5
	volume_envelope 10, 8
	note C_, 1
	volume_envelope 11, 8
	note D#, 1
	note F_, 1
	note F#, 1
	octave 6
	note C#, 1
	octave 5
	note G#, 1
	volume_envelope 10, 8
	note F#, 1
	volume_envelope 9, 8
	note C#, 1
	volume_envelope 8, 8
	note F#, 1
	volume_envelope 7, 8
	note C#, 1
	octave 4
	volume_envelope 6, 8
	note F#, 1
	volume_envelope 5, 8
	note C#, 1
	volume_envelope 4, 8
	note G#, 1
	note F#, 1
	volume_envelope 3, 8
	note C#, 1
	note C#, 1
	volume_envelope 2, 8
	note F#, 1
	note C#, 1
	octave 3
	volume_envelope 1, 8
	note F#, 1
	octave 5
	sound_loop 3, .loop1
	rest 2
	volume_envelope 10, 8
	octave 3
	note A#, 2
	rest 6
	note A#, 2
	rest 6
	note A#, 2
	rest 4
	octave 2
	note A#, 2
	rest 2
	note A#, 2
	note A#, 1
	rest 1
	note A#, 2
	note A#, 1
	rest 1
	octave 3
	note F_, 2
	octave 2
	note A#, 1
	rest 1
	octave 3
	note A#, 2
	octave 2
	note A#, 2
	rest 4
	note B_, 2
	note B_, 1
	rest 5
	note A_, 2
	note A_, 1
	rest 5
	octave 4
.loop2:
	octave 3
	note A#, 2
	note G#, 2
	octave 2
	note A#, 2
	octave 4
	sound_loop 2, .loop2
	octave 3
	note G#, 2
	octave 2
	note A#, 2
	octave 3
	rest 8
	note F_, 16
	note E_, 16
	note G#, 8
	note G_, 8
	note F#, 4
	note F_, 4
	note E_, 4
	note A#, 12
	note F_, 8
	note E_, 8
	note F_, 4
	note E_, 2
	note F_, 8
	note F#, 4
	note G_, 2
	note G#, 2
	note A_, 4
	note A#, 6
	octave 4
	note_type 8, 10, 8
	note B_, 2
	note F#, 1
	rest 1
	note C#, 1
	rest 1
	octave 3
	note G#, 2
	note C#, 1
	note_type 12, 10, 8
	note C#, 1
	octave 4
	note_type 8, 10, 8
	note F#, 2
	note C#, 1
	rest 1
	octave 3
	note G_, 1
	rest 1
	note C#, 2
	octave 2
	note G#, 1
	rest 1
	note D_, 1
	rest 1
	note_type 1, 10, 8
	rest 16
	rest 16
	rest 4
	note_type 12, 10, 8
	rest 2
	octave 3
	volume_envelope 1, 8
	note F_, 1
	volume_envelope 2, 8
	note G_, 1
	volume_envelope 3, 8
	note G#, 1
	volume_envelope 4, 8
	note A#, 1
	octave 4
	volume_envelope 5, 8
	note C_, 1
	volume_envelope 6, 8
	note C#, 1
	note D#, 1
	volume_envelope 7, 8
	note F_, 1
	note G_, 1
	volume_envelope 8, 8
	note G#, 1
	note A#, 1
	octave 5
	volume_envelope 9, 8
	note C_, 1
	note C#, 1
	volume_envelope 10, 8
	note D#, 1
	note C#, 1
	volume_envelope 9, 8
	note C_, 1
	octave 4
	note A#, 1
	octave 5
	volume_envelope 8, 8
	note C_, 1
	octave 4
	note A#, 1
	volume_envelope 7, 8
	note G#, 1
	note G_, 1
	volume_envelope 6, 8
	note G#, 1
	note G_, 1
	volume_envelope 5, 8
	note F_, 1
	volume_envelope 4, 8
	note D#, 1
	volume_envelope 3, 8
	note F_, 1
	volume_envelope 2, 8
	note D#, 1
	volume_envelope 1, 8
	note C#, 1
	rest 8
	octave 3
	note G_, 1
	volume_envelope 2, 8
	note G#, 1
	volume_envelope 3, 8
	note A#, 1
	octave 4
	volume_envelope 4, 8
	note C_, 1
	volume_envelope 5, 8
	note C#, 1
	volume_envelope 6, 8
	note D#, 1
	note F_, 1
	volume_envelope 7, 8
	note G_, 1
	note G#, 1
	volume_envelope 8, 8
	note A#, 1
	octave 5
	note C_, 1
	volume_envelope 9, 8
	note C#, 1
	note D#, 1
	volume_envelope 10, 8
	note F_, 1
	note D#, 1
	volume_envelope 9, 8
	note C#, 1
	note C_, 1
	octave 4
	volume_envelope 8, 8
	note A#, 1
	octave 5
	volume_envelope 7, 8
	note C_, 1
	octave 4
	volume_envelope 6, 8
	note A#, 1
	volume_envelope 5, 8
	note G#, 1
	volume_envelope 4, 8
	note A#, 1
	volume_envelope 3, 8
	note G#, 1
	volume_envelope 2, 8
	note G_, 1
	rest 4
	octave 3
	volume_envelope 1, 8
	note F#, 1
	volume_envelope 2, 8
	note G#, 1
	volume_envelope 3, 8
	note A#, 1
	volume_envelope 4, 8
	note B_, 1
	octave 4
	volume_envelope 5, 8
	note C#, 1
	volume_envelope 6, 8
	note D#, 1
	note E_, 1
	volume_envelope 7, 8
	note F#, 1
	note G#, 1
	volume_envelope 8, 8
	note A#, 1
	note B_, 1
	octave 5
	volume_envelope 9, 8
	note C#, 1
	note D#, 1
	volume_envelope 10, 8
	note E_, 1
	note F#, 1
	note D#, 1
	volume_envelope 9, 8
	note E_, 1
	note D#, 1
	volume_envelope 8, 8
	note C#, 1
	octave 4
	note B_, 1
	volume_envelope 7, 8
	note A#, 1
	note B_, 1
	volume_envelope 6, 8
	note A#, 1
	volume_envelope 5, 8
	note G#, 1
	volume_envelope 4, 8
	note F#, 1
	volume_envelope 3, 8
	note G#, 1
	volume_envelope 2, 8
	note F#, 1
	volume_envelope 1, 8
	note E_, 1
	rest 6
	octave 3
	note F#, 1
	volume_envelope 2, 8
	note G#, 1
	volume_envelope 3, 8
	note A#, 1
	volume_envelope 4, 8
	note B_, 1
	octave 4
	volume_envelope 5, 8
	note C#, 1
	note D#, 1
	volume_envelope 6, 8
	note E_, 1
	note F#, 1
	volume_envelope 7, 8
	note G#, 1
	note A#, 1
	volume_envelope 8, 8
	note B_, 1
	octave 5
	note C#, 1
	volume_envelope 9, 8
	note D#, 1
	note E_, 1
	volume_envelope 10, 8
	note F#, 1
	note G#, 1
	note F#, 1
	volume_envelope 9, 8
	note E_, 1
	volume_envelope 8, 8
	note D#, 1
	volume_envelope 7, 8
	note E_, 1
	volume_envelope 6, 8
	note D#, 1
	volume_envelope 5, 8
	note C#, 1
	octave 4
	volume_envelope 4, 8
	note B_, 1
	volume_envelope 3, 8
	note A#, 1
	volume_envelope 2, 8
	note G#, 1
	volume_envelope 1, 8
	note G_, 1
	rest 4
	octave 3
	note A_, 1
	volume_envelope 2, 8
	note B_, 1
	octave 4
	volume_envelope 3, 8
	note C#, 1
	volume_envelope 4, 8
	note D_, 1
	volume_envelope 5, 8
	note E_, 1
	note F#, 1
	volume_envelope 6, 8
	note G_, 1
	note A_, 1
	volume_envelope 7, 8
	note B_, 1
	octave 5
	note C#, 1
	volume_envelope 8, 8
	note D_, 1
	note E_, 1
	volume_envelope 9, 8
	note F#, 1
	note G_, 1
	volume_envelope 10, 8
	note A_, 1
	note F#, 1
	volume_envelope 9, 8
	note G_, 1
	note F#, 1
	volume_envelope 8, 8
	note E_, 1
	note D_, 1
	volume_envelope 7, 8
	note C#, 1
	note D_, 1
	volume_envelope 6, 8
	note C#, 1
	octave 4
	volume_envelope 5, 8
	note B_, 1
	volume_envelope 4, 8
	note A_, 1
	volume_envelope 3, 8
	note B_, 1
	volume_envelope 2, 8
	note A_, 1
	volume_envelope 1, 8
	note G_, 1
	rest 6
	octave 3
	note A_, 1
	volume_envelope 2, 8
	note B_, 1
	octave 4
	volume_envelope 3, 8
	note C#, 1
	volume_envelope 4, 8
	note D_, 1
	note E_, 1
	volume_envelope 5, 8
	note F#, 1
	note G_, 1
	volume_envelope 6, 8
	note A_, 1
	note B_, 1
	octave 5
	volume_envelope 7, 8
	note C_, 1
	note D_, 1
	volume_envelope 8, 8
	note E_, 1
	note F#, 1
	volume_envelope 9, 8
	note G_, 1
	note A_, 1
	volume_envelope 10, 8
	note B_, 1
	note A_, 1
	volume_envelope 9, 8
	note G_, 1
	volume_envelope 8, 8
	note F#, 1
	volume_envelope 7, 8
	note E_, 1
	volume_envelope 6, 8
	note D_, 1
	volume_envelope 5, 8
	note C#, 1
	octave 4
	volume_envelope 4, 8
	note B_, 1
	volume_envelope 3, 8
	note A_, 1
	volume_envelope 2, 8
	note G_, 1
	volume_envelope 1, 8
	note F#, 1
	octave 3
	volume_envelope 10, 8
	note F_, 6
	note F_, 2
	rest 2
	note F_, 2
	rest 2
	note F_, 2
	note G_, 6
	note G_, 2
	rest 2
	note G_, 2
	rest 2
	note G_, 2
	note E_, 6
	note E_, 2
	rest 2
	note G_, 2
	rest 2
	note E_, 2
	note E_, 6
	note G_, 1
	rest 1
	note G_, 1
	rest 1
	note G_, 1
	rest 1
	note G_, 1
	rest 1
	note G_, 1
	rest 1
	octave 2
.loop3:
	note A_, 2
	note B_, 1
	rest 1
	octave 3
	note D_, 2
	octave 2
	note A_, 2
	note B_, 1
	rest 1
	octave 3
	note D_, 2
	octave 2
	note A_, 2
	note B_, 1
	rest 1
	note B_, 2
	note A_, 2
	note B_, 1
	rest 1
	octave 3
	note D_, 4
	octave 2
	note A_, 3
	rest 1
	note A#, 1
	rest 1
	note A_, 2
	note B_, 1
	rest 1
	octave 3
	note D_, 2
	octave 2
	note A_, 2
	note B_, 1
	rest 1
	octave 3
	note D_, 2
	octave 2
	note A_, 2
	note B_, 1
	rest 1
	note B_, 2
	note A_, 2
	note B_, 1
	rest 1
	octave 3
	note E_, 4
	note D_, 2
	octave 2
	note A_, 1
	rest 1
	note A_, 1
	note A_, 1
	sound_loop 4, .loop3
	rest 4
	octave 3
	volume_envelope 1, 8
.loop4:
	note F_, 1
	volume_envelope 2, 8
	note A#, 1
	octave 4
	volume_envelope 3, 8
	note C_, 1
	octave 3
	volume_envelope 4, 8
	note A#, 1
	octave 4
	volume_envelope 5, 8
	note F_, 1
	volume_envelope 6, 8
	note A#, 1
	octave 5
	volume_envelope 7, 8
	note C_, 1
	octave 4
	volume_envelope 8, 8
	note A#, 1
	octave 5
	volume_envelope 9, 8
	note F_, 1
	volume_envelope 10, 8
	note A#, 1
	octave 6
	note C_, 1
	octave 5
	note A#, 1
	octave 6
	note C_, 1
	octave 5
	note A#, 1
	volume_envelope 9, 8
	note F_, 1
	octave 4
	note A#, 1
	volume_envelope 8, 8
	note F_, 1
	note A#, 1
	volume_envelope 7, 8
	note F_, 1
	octave 3
	note A#, 1
	octave 4
	volume_envelope 6, 8
	note C_, 1
	note F_, 1
	volume_envelope 5, 8
	note C_, 1
	octave 3
	note A#, 1
	volume_envelope 4, 8
	note F_, 1
	volume_envelope 3, 8
	note A#, 1
	volume_envelope 2, 8
	note F_, 1
	octave 2
	volume_envelope 1, 8
	note A#, 1
	rest 4
	octave 3
	note F_, 1
	volume_envelope 2, 8
	note A#, 1
	octave 4
	volume_envelope 3, 8
	note C_, 1
	octave 3
	volume_envelope 4, 8
	note A#, 1
	octave 4
	volume_envelope 5, 8
	note C#, 1
	volume_envelope 6, 8
	note F#, 1
	volume_envelope 7, 8
	note G#, 1
	volume_envelope 8, 8
	note F#, 1
	octave 5
	volume_envelope 9, 8
	note C#, 1
	volume_envelope 10, 8
	note G#, 1
	note F#, 1
	note C#, 1
	note F#, 1
	octave 6
	note C#, 1
	octave 5
	note G#, 1
	volume_envelope 9, 8
	note F#, 1
	note C#, 1
	volume_envelope 8, 8
	note F#, 1
	note C#, 1
	octave 4
	volume_envelope 7, 8
	note F#, 1
	octave 3
	volume_envelope 6, 8
	note F#, 1
	octave 4
	volume_envelope 5, 8
	note C#, 1
	octave 3
	volume_envelope 4, 8
	note G#, 1
	volume_envelope 3, 8
	note C#, 1
	volume_envelope 2, 8
	note G#, 1
	volume_envelope 1, 8
	note C#, 1
	rest 6
	sound_loop 4, .loop4
	note F_, 1
	volume_envelope 2, 8
	note A#, 1
	octave 4
	volume_envelope 3, 8
	note C_, 1
	octave 3
	volume_envelope 4, 8
	note A#, 1
	octave 4
	volume_envelope 5, 8
	note F_, 1
	volume_envelope 6, 8
	note A#, 1
	octave 5
	volume_envelope 7, 8
	note C_, 1
	octave 4
	volume_envelope 8, 8
	note A#, 1
	octave 5
	volume_envelope 9, 8
	note F_, 1
	volume_envelope 10, 8
	note A#, 1
	octave 6
	note C_, 1
	octave 5
	note A#, 1
	octave 6
	note C_, 1
	octave 5
	note A#, 1
	volume_envelope 9, 8
	note F_, 1
	octave 4
	note A#, 1
	volume_envelope 8, 8
	note F_, 1
	note A#, 1
	volume_envelope 7, 8
	note F_, 1
	octave 3
	note A#, 1
	octave 4
	volume_envelope 6, 8
	note C_, 1
	note F_, 1
	volume_envelope 5, 8
	note C_, 1
	octave 3
	note A#, 1
	volume_envelope 4, 8
	note F_, 1
	volume_envelope 3, 8
	note A#, 1
	volume_envelope 2, 8
	note F_, 1
	octave 2
	volume_envelope 1, 8
	note A#, 1
	rest 4
	octave 3
	note F_, 1
	volume_envelope 2, 8
	note A#, 1
	octave 4
	volume_envelope 3, 8
	note C_, 1
	octave 3
	volume_envelope 4, 8
	note A#, 1
	octave 4
	volume_envelope 5, 8
	note C#, 1
	volume_envelope 6, 8
	note F#, 1
	volume_envelope 7, 8
	note G#, 1
	volume_envelope 8, 8
	note F#, 1
	octave 5
	volume_envelope 9, 8
	note C#, 1
	volume_envelope 10, 8
	note G#, 1
	note F#, 1
	note C#, 1
	note F#, 1
	octave 6
	note C#, 1
	octave 5
	note G#, 1
	volume_envelope 9, 8
	note F#, 1
	note C#, 1
	volume_envelope 8, 8
	note F#, 1
	note C#, 1
	octave 4
	volume_envelope 7, 8
	note F#, 1
	octave 3
	volume_envelope 6, 8
	note F#, 1
	octave 4
	volume_envelope 5, 8
	note C#, 1
	octave 3
	volume_envelope 4, 8
	note G#, 1
	volume_envelope 3, 8
	note C#, 1
	volume_envelope 2, 8
	note G#, 1
	volume_envelope 1, 8
	note C#, 1
	octave 2
	note F#, 1
	octave 3
	note C#, 1
	volume_envelope 10, 8
	note G_, 16
	note G_, 5
	rest 1
	note F_, 2
	note F#, 8
	note G#, 16
	note_type 6, 10, 8
	note A#, 1
	rest 1
	note F_, 1
	rest 1
	volume_envelope 11, 8
	note C#, 1
	rest 1
	note F_, 1
	rest 1
	volume_envelope 12, 8
	note C#, 1
	rest 1
	octave 2
	note A#, 1
	octave 3
	rest 1
	volume_envelope 13, 8
	note C#, 1
	rest 1
	note F_, 1
	rest 1
	volume_envelope 14, 8
	note A#, 1
	rest 1
	note F_, 1
	rest 1
	volume_envelope 15, 8
	note A#, 1
	rest 1
	octave 4
	note C#, 1
	rest 1
	note F_, 1
	rest 1
	note C#, 1
	rest 1
	note F_, 1
	rest 1
	note G#, 1
	rest 1
	octave 8
	note_type 12, 10, 8
	sound_loop 0, .mainLoop

Music_GalarBirds_Ch2:
	note_type 12, 15, 8
.mainLoop:
	duty_cycle 3
	vibrato 0, 1, 1
	octave 3
	volume_envelope 15, 7
	note A#, 6
	note A_, 6
	note F_, 4
	note G#, 6
	note G_, 6
	note D#, 4
	note F_, 6
	octave 2
	note B_, 4
	octave 3
	note F_, 4
	octave 2
	note B_, 2
	octave 3
	note B_, 6
	note F_, 4
	note B_, 4
	octave 2
	note B_, 2
	octave 3
	note A#, 16
	rest 16
.loop1:
	octave 2
	duty_cycle 2
	volume_envelope 6, 2
	note A#, 2
	octave 3
	note C#, 1
	note C_, 1
	note C#, 2
	note F_, 1
	note E_, 1
	note F_, 2
	note A#, 4
	note F#, 4
	octave 2
	note F_, 1
	note E_, 1
	note F_, 1
	rest 1
	note A#, 1
	note A_, 1
	note A#, 1
	rest 1
	octave 3
	note C#, 1
	note C_, 1
	note C#, 1
	rest 1
	note F_, 1
	note E_, 1
	sound_loop 2, .loop1
	octave 2
	duty_cycle 2
	volume_envelope 6, 2
	note A#, 2
	octave 3
	note C#, 1
	note C_, 1
	note C#, 1
	rest 1
	note F_, 1
	note E_, 1
	note F_, 2
	note A#, 4
	note F#, 10
	note_type 12, 9, 2
	octave 2
	note A#, 2
	octave 3
	note C#, 2
	note F_, 2
	note F#, 2
	note_type 6, 15, 7
	duty_cycle 3
	note F_, 1
	note F#, 1
	note_type 12, 15, 7
	note F_, 9
	note_type 6, 15, 7
	note F_, 1
	note F#, 1
	note_type 12, 15, 7
	note F_, 3
	note D#, 1
	note F_, 1
	note D#, 2
	rest 1
	note_type 1, 15, 7
	rest 12
	note_type 12, 15, 7
	note F_, 2
	rest 2
	note F#, 6
	note G#, 1
	note F#, 1
	note F_, 6
	octave 2
	note A#, 1
	note G#, 1
	note A#, 8
	rest 8
	octave 5
	note C#, 1
	note F#, 1
	note C#, 1
	octave 4
	note A#, 1
	note C#, 1
	note F#, 1
	note C#, 1
	octave 3
	note A#, 1
	octave 4
	rest 2
	note F_, 1
	note D#, 1
	note F_, 1
	note_type 6, 15, 7
	rest 2
	note_type 12, 15, 7
	note F_, 1
	rest 3
	note_type 6, 15, 7
	note F_, 1
	note F#, 1
	note_type 12, 15, 7
	note F_, 3
	note D#, 1
	note F_, 1
	note D#, 2
	rest 1
	note_type 1, 15, 7
	rest 12
	note_type 12, 15, 7
	note F_, 2
	rest 2
	note F#, 6
	note G#, 1
	note F#, 1
	note F_, 6
	octave 3
	note A#, 1
	note G#, 1
	octave 4
	note A#, 6
	note G#, 1
	note F#, 1
	note C_, 2
	note C#, 6
	note C#, 2
	note C#, 1
	rest 1
	note C#, 1
	note C#, 1
	note C#, 1
	note C#, 1
	rest 4
	octave 2
	note A#, 1
	octave 3
	note E_, 1
	note A_, 1
	octave 4
	note D_, 1
	note G_, 2
	octave 3
	rest 2
	note B_, 1
	note G_, 1
	note D_, 1
	octave 2
	note A_, 1
	rest 4
	octave 4
	note D#, 1
	octave 3
	note A#, 1
	note F_, 1
	note C_, 1
	octave 4
	note D_, 1
	octave 3
	note A_, 1
	note E_, 1
	octave 2
	note B_, 1
	rest 16
	octave 4
	note F#, 1
	note C#, 1
	octave 3
	note G#, 1
	note D#, 1
	octave 2
	note B_, 2
	octave 4
	rest 2
	note E_, 1
	octave 3
	note B_, 1
	note F#, 1
	note C#, 1
	octave 2
	note A_, 2
	octave 3
	rest 1
	note_type 6, 15, 7
	rest 2
	note_type 12, 15, 7
	note C#, 1
	octave 2
	note B_, 1
	note A#, 1
	note A_, 1
	note G#, 4
	octave 3
	rest 16
	volume_envelope 1, 7
	note F_, 1
	volume_envelope 3, 7
	note A#, 1
	octave 4
	volume_envelope 5, 7
	note C_, 1
	octave 3
	volume_envelope 6, 7
	note A#, 1
	octave 4
	volume_envelope 7, 7
	note F_, 1
	volume_envelope 8, 7
	note A#, 1
	octave 5
	volume_envelope 9, 7
	note C_, 1
	octave 4
	volume_envelope 10, 7
	note A#, 1
	octave 5
	volume_envelope 11, 7
	note F_, 1
	volume_envelope 12, 7
	note A#, 1
	octave 6
	volume_envelope 13, 7
	note C_, 1
	octave 5
	volume_envelope 14, 7
	note A#, 1
	octave 6
	volume_envelope 15, 7
	note C_, 1
	octave 5
	volume_envelope 14, 7
	note A#, 1
	volume_envelope 13, 7
	note F_, 1
	octave 4
	volume_envelope 12, 7
	note A#, 1
	volume_envelope 11, 7
	note F_, 1
	volume_envelope 10, 7
	note A#, 1
	volume_envelope 9, 7
	note F_, 1
	octave 3
	volume_envelope 8, 7
	note A#, 1
	octave 4
	volume_envelope 7, 7
	note C#, 1
	volume_envelope 6, 7
	note F_, 1
	volume_envelope 5, 7
	note C#, 1
	octave 3
	volume_envelope 4, 7
	note A#, 1
	volume_envelope 3, 7
	note F_, 1
	volume_envelope 2, 7
	note A#, 1
	volume_envelope 1, 7
	note F_, 1
	octave 2
	note A#, 1
	rest 8
	octave 4
	sound_call .sub1
	rest 8
	octave 4
	volume_envelope 7, 7
	note F_, 1
	volume_envelope 8, 7
	note A#, 1
	octave 5
	volume_envelope 9, 7
	note C_, 1
	octave 4
	volume_envelope 10, 7
	note A#, 1
	octave 5
	volume_envelope 11, 7
	note F_, 1
	volume_envelope 12, 7
	note A#, 1
	octave 6
	volume_envelope 13, 7
	note C_, 1
	octave 5
	volume_envelope 14, 7
	note A#, 1
	octave 6
	volume_envelope 15, 7
	note C_, 1
	octave 5
	volume_envelope 14, 7
	note A#, 1
	volume_envelope 13, 7
	note F_, 1
	octave 4
	volume_envelope 12, 7
	note A#, 1
	volume_envelope 11, 7
	note F_, 1
	volume_envelope 10, 7
	note A#, 1
	volume_envelope 9, 7
	note F_, 1
	octave 3
	volume_envelope 8, 7
	note A#, 1
	octave 4
	volume_envelope 7, 7
	note C#, 1
	volume_envelope 6, 7
	note F_, 1
	volume_envelope 5, 7
	note C#, 1
	octave 3
	volume_envelope 4, 7
	note A#, 1
	volume_envelope 3, 7
	note F_, 1
	volume_envelope 2, 7
	note A#, 1
	volume_envelope 1, 7
	note F_, 1
	octave 2
	note A#, 1
	rest 8
	octave 4
	sound_call .sub1
	note_type 12, 15, 7
	octave 3
	note C#, 12
	sound_call .sub2
	rest 1
	octave 3
	note D#, 8
	sound_call .sub2
	note_type 12, 15, 7
	rest 1
	octave 3
	note G_, 10
	rest 2
	note C_, 1
	octave 2
	note A#, 1
	octave 3
	note C_, 1
	rest 1
	note A#, 4
	note G#, 4
	note D#, 4
	note C_, 1
	octave 2
	note A#, 1
	octave 3
	note C_, 10
	octave 2
	note F_, 2
	note G#, 1
	rest 1
	octave 3
	note D#, 1
	note C#, 1
	note D#, 1
	rest 1
	note F#, 8
	octave 2
	note G#, 2
	note B_, 1
	rest 1
	octave 3
	note E_, 1
	note D_, 1
	note E_, 1
	rest 1
	octave 2
	note F#, 8
	rest 2
	note B_, 1
	octave 3
	note C#, 1
	note D#, 4
	octave 4
	note C#, 4
	octave 3
	note B_, 4
	note F#, 4
	note D#, 1
	note C#, 1
	note D#, 8
	rest 2
	octave 2
	note B_, 2
	octave 3
	note D_, 1
	rest 1
	note F#, 1
	note E_, 1
	note F#, 1
	rest 1
	note A_, 8
	octave 2
	note B_, 2
	octave 3
	note D_, 1
	rest 1
	note F#, 1
	note E_, 1
	note F#, 1
	rest 1
	octave 4
	note C#, 8
	octave 2
	note B_, 2
	octave 3
	note D_, 1
	rest 1
	note F#, 1
	note E_, 1
	note F#, 1
	rest 1
	octave 4
	note E_, 4
	note D_, 4
	octave 3
	note A_, 4
	note F#, 1
	note E_, 1
	note F#, 8
	rest 2
	octave 2
	note B_, 2
	octave 3
	note D_, 1
	rest 1
.loop3:
	volume_envelope 15, 7
	note A_, 6
	note G_, 2
	rest 2
	octave 4
	note C_, 2
	rest 2
	octave 3
	note F_, 2
	sound_loop 2, .loop3
	note A_, 6
	note G_, 2
	rest 2
	octave 4
	note C_, 2
	rest 2
	octave 3
	note G_, 2
	note A_, 4
	rest 2
	note E_, 1
	rest 1
	note E_, 1
	rest 1
	note E_, 1
	rest 1
	note E_, 1
	rest 1
	note E_, 1
	rest 1
	volume_envelope 8, 7
	note E_, 1
	rest 1
	volume_envelope 3, 7
	note E_, 1
	rest 16
	volume_envelope 1, 7
	rest 16
	rest 16
	rest 16
	rest 16
	rest 16
	rest 16
	rest 13
	note_type 6, 15, 7
	octave 4
	note F#, 1
	note G_, 1
	note_type 12, 15, 7
	note F#, 5
	octave 3
	note F#, 1
	note E_, 1
	note B_, 6
	octave 4
	note E_, 1
	note F#, 1
	note E_, 2
	rest 2
	note F#, 2
	rest 2
	note G_, 6
	note A_, 1
	note G_, 1
	note F#, 6
	octave 3
	note B_, 1
	note A_, 1
	note B_, 8
	rest 16
	octave 4
	note_type 6, 15, 7
	note F#, 1
	note G_, 1
	note_type 12, 15, 7
	note F#, 7
	note D_, 1
	rest 1
	note A_, 4
	note E_, 1
	note F#, 1
	note E_, 2
	rest 2
	note F#, 2
	rest 2
	note G_, 6
	note A_, 1
	note G_, 1
	note F#, 6
	note F_, 1
	note F#, 1
	note B_, 6
	note A_, 1
	note G_, 1
	note E_, 6
	note D_, 2
	rest 2
	octave 3
	note B_, 2
	rest 2
	octave 4
	note D_, 2
	note_type 6, 15, 7
	note F_, 1
	note F#, 1
	note_type 12, 15, 7
	note F_, 5
	octave 3
	note F_, 1
	note D#, 1
	note F_, 1
	note A#, 1
	octave 4
	note_type 6, 15, 7
	note F_, 1
	note F#, 1
	note_type 12, 15, 7
	note F_, 3
	note D#, 1
	note F_, 1
	note D#, 2
	rest 2
	note F_, 2
	rest 2
	note F#, 6
	note G#, 1
	note F#, 1
	note F_, 6
	octave 3
	note A#, 1
	note G#, 1
	note A#, 8
	rest 16
	rest 2
	octave 4
	note F_, 1
	note D#, 1
	note F_, 8
	octave 3
	note A#, 2
	octave 4
	note D#, 1
	note F_, 1
	note D#, 2
	octave 3
	note F#, 2
	octave 4
	note F_, 2
	rest 2
	note F#, 6
	note G#, 1
	note F#, 1
	note F_, 6
	note E_, 1
	note F_, 1
	note A#, 8
	rest 16
.loop2:
	note D#, 8
	note G_, 8
	note F#, 6
	note D_, 2
	note D#, 8
	note F_, 8
	note C#, 8
	note E_, 8
	note C_, 8
	sound_loop 3, .loop2
	octave 3
	note D#, 8
	note G_, 8
	note F#, 6
	note D_, 2
	note D#, 8
	note F_, 8
	note C#, 8
	octave 2
	note F#, 2
	note B_, 2
	octave 3
	note E_, 2
	note A_, 2
	octave 2
	note_type 8, 15, 7
	note A_, 2
	octave 3
	note D_, 2
	note G_, 2
	octave 4
	note_type 12, 15, 7
	note C_, 1
	note F_, 1
	note A#, 2
	octave 3
	sound_loop 0, .mainLoop

.sub1:
	note C#, 1
	volume_envelope 2, 7
	note F#, 1
	volume_envelope 3, 7
	note G#, 1
	volume_envelope 4, 7
	note F#, 1
	octave 5
	volume_envelope 6, 7
	note C#, 1
	volume_envelope 8, 7
	note G#, 1
	volume_envelope 10, 7
	note F#, 1
	volume_envelope 12, 7
	note C#, 1
	volume_envelope 14, 7
	note F#, 1
	octave 6
	volume_envelope 15, 7
	note C#, 1
	octave 5
	volume_envelope 14, 7
	note G#, 1
	volume_envelope 13, 7
	note F#, 1
	volume_envelope 12, 7
	note C#, 1
	volume_envelope 11, 7
	note F#, 1
	volume_envelope 10, 7
	note C#, 1
	octave 4
	volume_envelope 9, 7
	note F#, 1
	octave 3
	volume_envelope 8, 7
	note F#, 1
	octave 4
	volume_envelope 7, 7
	note C#, 1
	octave 3
	volume_envelope 6, 7
	note G#, 1
	volume_envelope 5, 7
	note F#, 1
	volume_envelope 4, 7
	note C#, 1
	volume_envelope 3, 7
	note F#, 1
	volume_envelope 2, 7
	note C#, 1
	octave 2
	volume_envelope 1, 7
	note F#, 1
	sound_ret

.sub2:
	octave 2
	note F_, 2
	note G#, 1
	rest 1
	octave 3
	note C_, 1
	octave 2
	note A#, 1
	octave 3
	note C_, 1
	octave 4
	sound_ret

Music_GalarBirds_Ch3:
	note_type 12, 1, 0
.mainLoop:
	octave 4
	volume_envelope 1, 2
	vibrato 0, 0, 0
	note C#, 2
	octave 3
	note C#, 1
	note C#, 1
	octave 4
	note C#, 1
	note C#, 1
	note C_, 2
	octave 3
	note C_, 1
	note C_, 1
	octave 4
	note C_, 1
	note C_, 1
	octave 3
	note G#, 2
	octave 2
	note G#, 1
	note G#, 1
	octave 3
	note B_, 2
	octave 2
	note B_, 1
	note B_, 1
	octave 3
	note B_, 1
	note B_, 1
	note A#, 2
	octave 2
	note A#, 1
	note A#, 1
	octave 3
	note A#, 1
	note A#, 1
	note F#, 2
	octave 2
	note G#, 1
	note G#, 1
	octave 3
	note G#, 2
	octave 2
	note A#, 1
	note A#, 1
	octave 3
	note G#, 1
	note G#, 1
	note D_, 2
	octave 2
	note D_, 1
	note D_, 1
	octave 3
	note G#, 2
	octave 2
	note G#, 1
	note G#, 1
	octave 3
	note D_, 2
	octave 4
	note D_, 2
	octave 3
	note D_, 1
	note D_, 1
	octave 4
	note D_, 1
	note D_, 1
	octave 3
	note B_, 2
	octave 2
	note B_, 1
	note B_, 1
	octave 4
	note D_, 2
	octave 3
	note D_, 1
	note D_, 1
	note F#, 2
	volume_envelope 1, 0
	octave 2
.loop1:
	volume_envelope 1, 2
	note A#, 2
	octave 3
	note F_, 1
	rest 1
	octave 2
	note A#, 2
	octave 3
	note F_, 1
	rest 1
	note E_, 2
	note F_, 1
	rest 1
	octave 2
	note A#, 2
	octave 3
	note F_, 1
	rest 1
	octave 2
	note B_, 2
	octave 3
	note F#, 1
	rest 1
	octave 2
	note B_, 2
	octave 3
	note F#, 1
	rest 1
	note F_, 1
	note F_, 1
	note F#, 1
	rest 1
	note G#, 1
	rest 1
	note F#, 1
	note F#, 1
	octave 2
	sound_loop 4, .loop1
	sound_call .sub1
	octave 2
	volume_envelope 1, 2
	sound_call .sub2
	octave 2
	sound_call .sub1
	note_type 12, 1, 0
	octave 2
	sound_call .sub2
	note_type 12, 1, 0
	octave 2
	sound_call .sub3
	rest 4
	octave 2
	sound_call .sub3
	note_type 12, 1, 0
	rest 4
	octave 2
	sound_call .sub3
	note_type 12, 1, 0
	rest 4
	octave 2
	volume_envelope 1, 2
	note A#, 2
	rest 2
	note A#, 2
	note A#, 1
	rest 1
	note A#, 2
	note A#, 1
	rest 1
	octave 3
	note F_, 2
	octave 2
	note A#, 1
	rest 1
	octave 3
	note A#, 2
	octave 2
	note A#, 2
	rest 4
	note B_, 2
	note B_, 1
	rest 5
	note A_, 2
	note A_, 1
	rest 5
	octave 3
.loop2:
	volume_envelope 1, 2
	note A#, 2
	note G#, 2
	octave 2
	note A#, 2
	octave 3
	sound_loop 2, .loop2
	octave 3
.loop3:
	volume_envelope 1, 2
	note G#, 2
	octave 2
	note A#, 2
	octave 3
	sound_loop 2, .loop3
	octave 3
	volume_envelope 1, 2
	note F_, 2
	note A#, 2
	note D#, 2
	note C#, 2
	note G#, 2
	note A#, 2
	note A#, 2
	octave 2
	note A#, 1
	rest 3
	octave 3
	note G#, 1
	note A#, 1
	octave 2
	note F#, 8
	octave 3
	note F#, 2
	octave 2
	note F#, 1
	rest 3
	octave 3
	note F_, 1
	note F#, 1
	note F#, 2
	octave 2
	note F#, 1
	rest 3
	note B_, 1
	octave 3
	note C#, 1
	note D_, 2
	octave 2
	note D_, 1
	rest 5
	octave 3
	note C#, 2
	octave 2
	note C#, 1
	rest 5
	octave 3
	note_type 8, 1, 2
	note B_, 1
	rest 1
	note C#, 1
	rest 1
	octave 2
	note F#, 1
	rest 1
	octave 3
	note G#, 2
	note A#, 2
	octave 2
	note A#, 2
	note_type 12, 1, 0
	sound_call .sub4
	octave 2
	note_type 12, 1, 0
	sound_call .sub4
	note_type 12, 1, 2
	octave 3
	note F_, 2
	note D#, 1
	note F_, 1
	octave 2
	note G#, 2
	rest 4
	note F#, 2
	octave 3
	note F#, 1
	octave 2
	rest 1
	note F#, 1
	rest 1
	note F#, 2
	rest 1
	note F#, 1
	note G#, 2
	rest 1
	note G#, 1
	rest 2
	note G#, 2
	octave 3
	note F#, 1
	octave 2
	rest 1
	note G#, 1
	rest 1
	note G#, 2
	rest 1
	note G#, 1
	note A_, 2
	rest 1
	note A_, 1
	note A_, 2
	octave 3
	note A_, 2
	octave 2
	note A#, 2
	octave 3
	note A#, 2
	octave 2
	note B_, 2
	octave 3
	note B_, 2
	note C_, 2
	octave 4
	note C_, 2
	octave 3
	sound_call .sub5
	rest 1
	octave 3
	sound_call .sub5
	note_type 12, 1, 0
	rest 1
	octave 4
	volume_envelope 1, 2
	note C#, 2
	octave 3
	note G#, 1
	rest 1
	sound_call .sub5
	note_type 12, 1, 0
	rest 1
	octave 3
	sound_call .sub6
	rest 1
	octave 3
	sound_call .sub6
	note_type 12, 1, 0
	rest 1
	octave 3
	volume_envelope 1, 2
	note D#, 2
	octave 4
	note D#, 1
	rest 1
	octave 3
	note C#, 2
	octave 4
	note C#, 1
	rest 1
	octave 2
.loop4:
	volume_envelope 1, 2
	note G#, 2
	octave 3
	note D#, 1
	rest 1
	octave 2
	sound_loop 5, .loop4
	octave 2
	volume_envelope 1, 2
	note G#, 2
	octave 3
	note C#, 1
	octave 2
	rest 1
	note G#, 2
	octave 3
	note C_, 1
	octave 2
	rest 1
	note G#, 2
	note A#, 1
	octave 3
	rest 1
.loop5:
	volume_envelope 1, 2
	note E_, 2
	note B_, 1
	rest 1
	sound_loop 2, .loop5
	volume_envelope 1, 2
	note E_, 2
	octave 4
	note D#, 1
	rest 1
	octave 3
	note E_, 2
	octave 4
	note C#, 1
	rest 1
	octave 3
	note F#, 2
	octave 4
	note C#, 1
	octave 3
	rest 1
	note F#, 2
	note B_, 1
	rest 1
	note F#, 2
	note A#, 1
	rest 1
	note F#, 2
	note G#, 1
	rest 1
	octave 2
.loop8:
	note B_, 2
	octave 3
	note F#, 1
	rest 1
	octave 2
	sound_loop 2, .loop8
	octave 3
	note F#, 2
	octave 4
	note D#, 1
	rest 1
	octave 3
	note B_, 2
	octave 4
	note C#, 1
	octave 2
	rest 1
	note B_, 2
	octave 3
	note B_, 1
	octave 2
	rest 1
	note B_, 2
	octave 3
	note A#, 1
	octave 2
	rest 1
	note B_, 2
	octave 3
	note G#, 1
	octave 2
	rest 1
	note B_, 2
	octave 3
	note F#, 1
	octave 2
	rest 1
.loop6:
	volume_envelope 1, 2
	note G_, 2
	octave 3
	note D_, 1
	rest 1
	octave 2
	sound_loop 3, .loop6
	octave 3
	volume_envelope 1, 2
	note G_, 2
	octave 2
	note G_, 1
	rest 1
	sound_call .sub7
	volume_envelope 1, 2
	note E_, 1
	rest 1
	octave 2
	sound_call .sub7
	note_type 12, 1, 2
	octave 4
	note C#, 1
	rest 1
	octave 3
.loop9:
	note D_, 2
	note A_, 1
	rest 1
	sound_loop 2, .loop9
	octave 4
	note D_, 2
	octave 3
	note A_, 1
	rest 1
	octave 4
	note D_, 2
	note F#, 1
	rest 1
	note D_, 2
	note E_, 1
	rest 1
	octave 3
	note D_, 2
	octave 4
	note D_, 1
	rest 1
	octave 3
	note C#, 2
	octave 4
	note C#, 1
	rest 1
	octave 2
	note B_, 2
	octave 3
	note B_, 1
	rest 1
	octave 2
	note A#, 6
	octave 3
	note D_, 4
	note F_, 4
	note A#, 2
	octave 4
	note C_, 6
	octave 3
	note A#, 4
	note A_, 4
	note G_, 2
	note A_, 6
	note G_, 4
	note F_, 4
	note E_, 2
	note A_, 2
	octave 2
	note A_, 1
	note A_, 1
	octave 3
.loop7:
	volume_envelope 1, 2
	note A_, 1
	octave 2
	note A_, 1
	note A_, 1
	note A_, 1
	octave 3
	sound_loop 3, .loop7
	octave 2
	volume_envelope 1, 2
	vibrato 2, 4, 2
	note A_, 2
	note B_, 1
	rest 1
	octave 3
	note D_, 2
	octave 2
	note A_, 1
	note A_, 1
	note B_, 1
	octave 3
	rest 1
	note D_, 2
	octave 2
	note A_, 2
	note B_, 1
	rest 1
	note B_, 2
	note A_, 2
	note B_, 1
	rest 1
	octave 3
	note D_, 4
	octave 2
	note A_, 1
	note A_, 1
	note A_, 1
	rest 1
	note A#, 1
	rest 1
	note A_, 2
	note B_, 1
	octave 3
	rest 1
	note D_, 2
	octave 2
	note A_, 1
	note A_, 1
	note B_, 1
	octave 3
	rest 1
	note D_, 2
	octave 2
	note A_, 2
	note B_, 1
	rest 1
	note B_, 2
	note A_, 2
	note B_, 1
	rest 1
	octave 3
	note E_, 4
	note D_, 2
	octave 2
	note A_, 1
	rest 1
	note A_, 1
	note A_, 1
	note B_, 2
	octave 3
	note B_, 2
	octave 2
	rest 2
	note B_, 2
	note B_, 2
	octave 3
	note A_, 2
	octave 2
	rest 4
	note B_, 2
	octave 3
	note A_, 2
	rest 2
	note G#, 2
	rest 2
	note F#, 4
	note F#, 2
	octave 2
	note E_, 2
	note F#, 2
	octave 3
	note C#, 2
	rest 2
	note E_, 2
	note F_, 2
	note A#, 2
	note B_, 2
	octave 4
	note C#, 1
	rest 1
	note F#, 2
	note C#, 1
	rest 1
	octave 3
	note F#, 2
	octave 2
	note F#, 2
	octave 3
	note A#, 2
	octave 4
	note C#, 2
	note D#, 1
	rest 1
	octave 2
	note B_, 2
	octave 1
	note B_, 1
	note B_, 1
	note B_, 4
	octave 2
	note B_, 2
	octave 3
	note E_, 1
	octave 2
	rest 1
	note B_, 2
	octave 3
	note F#, 1
	octave 2
	rest 1
	note B_, 2
	rest 2
	note B_, 1
	rest 1
	note B_, 2
	rest 2
	octave 3
	note F#, 2
	octave 2
	note B_, 2
	octave 3
	note B_, 2
	octave 2
	note B_, 2
	rest 2
	note B_, 1
	rest 1
	note B_, 2
	rest 2
	note B_, 2
	note B_, 2
	note B_, 2
.loop10:
	note B_, 2
	rest 2
	octave 3
	note B_, 1
	rest 1
	octave 2
	sound_loop 2, .loop10
	octave 2
	note B_, 2
	octave 3
	note B_, 1
	rest 1
	note B_, 2
	octave 2
	note B_, 1
	note B_, 1
	note B_, 4
	rest 2
	octave 3
	note B_, 2
	rest 2
	note B_, 2
	note B_, 4
	octave 2
	note B_, 2
	rest 4
	octave 3
	note B_, 2
	rest 2
	note B_, 2
	octave 2
	note B_, 2
	rest 2
	octave 3
	note B_, 2
	rest 4
	note B_, 2
	rest 2
	note B_, 2
	octave 2
	note B_, 2
	rest 2
	octave 3
	note B_, 2
	octave 2
	rest 4
	note B_, 2
	rest 2
	octave 3
	note B_, 2
	note A#, 2
	octave 2
	note A#, 1
	note A#, 1
	note A#, 4
	rest 2
	note A#, 2
	rest 2
	note A#, 2
	note A#, 2
	rest 2
	octave 3
	note A#, 1
	octave 2
	rest 1
	note A#, 2
	rest 2
	octave 3
	note A#, 1
	octave 2
	rest 1
	note A#, 2
	octave 3
	note A#, 2
	octave 2
	note A#, 2
	octave 3
	note A#, 2
	octave 4
	note C#, 2
	octave 3
	note F_, 2
	rest 2
	note F#, 2
	rest 2
	note G#, 2
	octave 2
	note A#, 2
	rest 2
	octave 3
	note A#, 1
	octave 2
	rest 1
	note A#, 2
	rest 2
	octave 3
	note A#, 1
	octave 2
	rest 1
	note A#, 2
	octave 3
	note A#, 2
	octave 2
	note A#, 2
	note A#, 1
	note A#, 1
	note A#, 4
	rest 2
	note A#, 2
	rest 2
	note A#, 2
	note A#, 2
	rest 2
	octave 3
	note A#, 1
	octave 2
	rest 1
	note A#, 2
	rest 2
	octave 3
	note A#, 1
	octave 2
	rest 1
	note A#, 2
	octave 3
	note A#, 2
	octave 2
	note A#, 2
	octave 3
	note A#, 2
	octave 4
	note C#, 2
	octave 3
	note F_, 2
	rest 2
	note F#, 2
	rest 2
	note G#, 2
	octave 2
.loop11:
	note A#, 2
	rest 2
	octave 2
	sound_loop 4, .loop11
	sound_call .sub8
	octave 2
.loop13:
	note A#, 2
	octave 3
	note F_, 1
	rest 1
	note A#, 2
	note F_, 1
	rest 1
	note E_, 2
	note F_, 1
	rest 1
	octave 2
	note A#, 2
	octave 3
	note F_, 1
	octave 2
	rest 1
	note B_, 2
	octave 3
	note F#, 1
	octave 2
	rest 1
	note B_, 2
	octave 3
	note F#, 1
	rest 1
	note F_, 2
	note F#, 1
	rest 1
	note G#, 2
	note F#, 1
	rest 1
	octave 2
	sound_loop 2, .loop13
	octave 2
	sound_call .sub8
	octave 2
	note_type 12, 1, 2
.loop12:
	note A#, 2
	octave 3
	note A#, 1
	rest 1
	octave 2
	sound_loop 16, .loop12
	note_type 12, 1, 2
	sound_loop 0, .mainLoop

.sub1:
	volume_envelope 1, 2
	note A#, 2
	octave 3
	note F_, 1
	rest 1
	octave 2
	note A#, 2
	octave 3
	note F_, 1
	rest 1
	note E_, 2
	note F_, 1
	rest 1
	octave 2
	note A#, 2
	octave 3
	note F_, 1
	rest 1
	octave 2
	note B_, 2
	octave 3
	note F#, 1
	rest 1
	octave 2
	note B_, 2
	octave 3
	note F#, 1
	rest 1
	note F_, 1
	note F_, 1
	note F#, 1
	rest 1
	note G#, 1
	rest 1
	note F#, 1
	note F#, 1
	sound_ret

.sub2:
	volume_envelope 1, 2
	note A#, 1
	note A#, 1
	octave 3
	note F_, 1
	rest 1
	octave 2
	note A#, 2
	octave 3
	note F_, 1
	rest 1
	note E_, 2
	note F_, 1
	rest 1
	octave 2
	note A#, 2
	octave 3
	note F_, 1
	rest 1
	note F#, 2
	note B_, 1
	rest 1
	note F#, 2
	note F#, 1
	rest 1
	octave 2
	note B_, 1
	note B_, 1
	octave 3
	note F#, 1
	rest 1
	note G#, 1
	rest 1
	note F#, 1
	note F#, 1
	sound_ret

.sub3:
	volume_envelope 1, 2
	note A#, 2
	octave 3
	note A#, 2
	sound_ret

.sub4:
	volume_envelope 1, 2
	note A#, 3
	note A#, 1
	note_type 1, 1, 0
	rest 16
	rest 8
	octave 3
	note_type 12, 1, 2
	note G#, 1
	note A#, 1
	sound_ret

.sub5:
	volume_envelope 1, 2
	note C#, 2
	note G#, 1
	sound_ret

.sub6:
	volume_envelope 1, 2
	note D#, 2
	note A#, 1
	sound_ret

.sub7:
	volume_envelope 1, 2
	note A_, 2
	octave 3
	note E_, 1
	rest 1
	note A_, 2
	sound_ret

.sub8:
	note A#, 2
	octave 3
	note F_, 1
	rest 1
	octave 2
	note A#, 2
	octave 3
	note F_, 1
	rest 1
	note E_, 2
	note F_, 1
	rest 1
	octave 2
	note A#, 2
	octave 3
	note F_, 1
	rest 1
	octave 2
	note B_, 2
	octave 3
	note F#, 1
	rest 1
	octave 2
	note B_, 2
	octave 3
	note F#, 1
	rest 1
	note F_, 2
	note F#, 1
	rest 1
	octave 2
	note B_, 2
	octave 3
	note F#, 1
	rest 1
	octave 2
	note A#, 2
	octave 3
	note F_, 1
	rest 1
	octave 2
	note A#, 2
	octave 3
	note F_, 1
	rest 1
	note E_, 2
	note F_, 1
	rest 1
	octave 2
	note A#, 2
	octave 3
	note F_, 1
	rest 1
	octave 2
	note B_, 2
	octave 3
	note F#, 1
	rest 1
	octave 2
	note B_, 2
	octave 3
	note F#, 1
	rest 1
	note F_, 2
	note F#, 1
	rest 1
	octave 2
	note B_, 2
	octave 3
	note F#, 1
	octave 4
	rest 1
	sound_ret

Music_GalarBirds_Ch4:
	toggle_noise 0
	drum_speed 12
.mainLoop:
	rest 16
	rest 16
	rest 16
	rest 16
	rest 16
	rest 16
	rest 16
	rest 16
	rest 16
	rest 16
	rest 16
	rest 16
	rest 16
	rest 16
	rest 16
	rest 16
	rest 16
	rest 16
	rest 16
	rest 16
	rest 16
	rest 16
	rest 16
	drum_speed 12
	rest 16
	rest 16
	rest 16
	rest 16
	rest 16
	rest 16
	rest 16
	rest 16
	rest 16
	rest 16
	rest 16
	rest 16
	rest 16
	rest 16
	rest 16
	rest 16
	rest 16
	rest 16
	rest 16
	rest 16
	rest 16
	rest 16
	rest 16
	rest 16
	rest 16
	rest 16
	rest 16
	rest 16
	rest 16
	rest 16
	rest 16
	rest 16
	rest 16
	rest 16
	rest 16
	rest 16
	rest 16
	rest 16
	rest 16
	rest 16
	rest 16
	rest 16
	rest 16
	rest 16
	rest 16
	rest 16
	rest 16
	rest 16
	rest 16
	rest 16
	rest 16
	rest 16
	rest 16
	rest 16
	rest 16
	rest 16
	rest 16
	rest 16
	rest 16
	rest 16
	rest 16
	rest 16
	rest 16
	rest 16
	rest 16
	rest 16
	rest 16
	sound_loop 0, .mainLoop
